<svg viewBox="0 0 15 21" xmlns="http://www.w3.org/2000/svg">
<path d="M5.07143 4.85714C4.42857 4.35714 4.21429 3.71429 4.21429 3C4.21429 1.28571 5.64286 0 7.21429 0C8.78572 0 10 1.21429 10 2.78571C10 3.57143 9.64286 4.35714 9 4.85714C10.5 5.42857 11.6429 6.64286 11.6429 8.42857C11.6429 9.78571 11.0714 10.7143 10.0714 11.4286C12.8571 12.6429 14.1429 15.3571 14.1429 17.7857C14.1429 19 13.9286 19.7857 13.4286 20.5H0.642857C0.142857 19.6429 0 19 0 17.7857C0 15.3571 1.35714 12.4286 4 11.4286C3.07143 10.7143 2.5 9.78571 2.5 8.64286C2.5 6.78571 3.5 5.5 5.07143 4.85714ZM5.42857 11.4286V11.7143C2.78571 12.7143 1.21429 15.4286 1.21429 17.7857C1.21429 18.4286 1.35714 18.9286 1.5 19.3571H12.6429C12.7857 19 12.9286 18.5 12.9286 17.7857C12.9286 15 10.9286 12.3571 8.5 11.7143V11.4286C10 10.7143 10.5 9.57143 10.5 8.42857C10.5 6.85714 9.57143 5.57143 7.71429 5.07143V4.85714C8.5 4.5 9 3.78571 9 2.92857C9 1.71429 8.21429 1 7.21429 1C6.28571 1 5.21429 1.64286 5.21429 3.07143C5.21429 3.71429 5.57143 4.42857 6.14286 4.85714V5.14286C4.57143 5.78571 3.57143 7 3.57143 8.64286C3.64286 9.78571 4.28571 10.7857 5.42857 11.4286Z"/>
</svg>
