<!--<svg xmlns="http://www.w3.org/2000/svg" viewBox="0 0 15 15" xmlns:xlink="http://www.w3.org/1999/xlink">
  <g fill-rule="evenodd">
    <path d="M11 7.5a3.5 3.5 0 1 1-7 0 3.5 3.5 0 0 1 7 0z" />
    <path d="M11 1H4a3 3 0 0 0-3 3v7a3 3 0 0 0 3 3h7a3 3 0 0 0 3-3V4a3 3 0 0 0-3-3z" />
  </g>-->
<svg xmlns="http://www.w3.org/2000/svg" viewBox="0 0 44 44" xmlns:xlink="http://www.w3.org/1999/xlink">
  <path class="aost0" d="M22 0C9.8 0 0 9.8 0 22s9.8 22 22 22 22-9.8 22-22S34.2 0 22 0z" />
  <path class="aost1"
        d="M33.2 44H10.6C4.8 44-.1 39.4-.1 33.3V10.7C-.1 4.9 4.5 0 10.6 0h22.7C39 0 43.9 4.6 43.9 10.7v22.7c0 6-4.6 10.6-10.7 10.6zM10.8 3c-4.4 0-7.9 3.6-7.9 7.9v22.7c0 4.4 3.6 7.9 7.9 7.9h22.7c4.4 0 7.9-3.6 7.9-7.9V10.9c0-4.4-3.6-7.9-7.9-7.9H10.8z" />
  <path class="aost1"
        d="M22 34.4c-6.8 0-12.3-5.5-12.3-12.3S15.2 9.8 22 9.8s12.3 5.5 12.3 12.3S28.9 34.4 22 34.4zm0-21.8c-5.5 0-9.6 4.4-9.6 9.6s4.4 9.6 9.6 9.6 9.6-4.4 9.6-9.6-4.1-9.6-9.6-9.6z" />
  </svg>
