<svg viewBox="0 0 11 26" xmlns="http://www.w3.org/2000/svg">
  <path d="M3.12813 23.6811C3.12813 24.9459 4.15938 26 5.39688 26C6.63438 26 7.66562 24.9459 7.66562 23.6811C7.66562 22.4162 6.63438 21.3622 5.39688 21.3622C4.15938 21.3622 3.12813 22.4162 3.12813 23.6811ZM0.653125 5.69189C2.02813 3.9 3.74688 3.05676 5.53438 3.05676C7.35625 3.05676 8.28438 3.82973 8.28438 4.98919C8.28438 6.21892 7.25313 6.92162 5.25938 8.22162C2.2 10.2243 1.2375 11.9811 1.2375 13.8432C1.2375 16.2676 3.025 18.3405 5.775 18.3405C8.1125 18.3405 9.625 17.0405 10.0719 15.9865L9.625 13.527C8.49063 14.7568 7.45937 15.3541 6.05 15.3541C4.70938 15.3541 3.95312 14.6514 3.95312 13.7027C3.95312 12.4378 5.29375 11.5243 6.80625 10.5405C8.97187 9.1 11 7.76487 11 4.88378C11 2.21351 9.075 0 5.43125 0C2.92187 0 0.721875 1.51081 0 3.33784L0.653125 5.69189Z"/>
</svg>
