<svg width="100%" height="100%" viewBox="0 0 247.1 305" fill="none" xmlns="http://www.w3.org/2000/svg">
	<style>.st0{fill:#ffc1a8}.fst1{fill:#fff}.st2{fill:#00c24f}.st3{fill:#f64747}.st4{fill:#a58aff}.st5{clip-path:url(#SVGID_2_)}.st6{clip-path:url(#SVGID_4_);fill:#737373}.st7{clip-path:url(#SVGID_6_)}.st8{clip-path:url(#SVGID_8_);fill:#1dbf55}.st9{clip-path:url(#SVGID_10_)}.st10{clip-path:url(#SVGID_12_);fill:#f2494c}.st11{clip-path:url(#SVGID_14_)}.st12{clip-path:url(#SVGID_16_);fill:#a48cfb}</style>
    <path d="M193.6 168.1c-1.8-29.3-27-51.9-56.2-50.5-.6-1.6-2.1-2.7-3.9-2.7h-4.8c2.3 0 4.2-2 4-4.3-.2-2.1-2-3.6-4.1-3.6-1 0-1.8-.8-1.8-1.8V103c0-.5.4-1 .9-1.1 2.9-.6 4.7-1.3 4.7-2.1s-1.7-1.5-4.4-2.1c0 0 9.4-42.9 9.4-43.6v-.3c-.1-2.3-2-4-4.3-4s-4.2 1.8-4.3 4.1c-.1-2.3-2-4.1-4.3-4.1s-4.2 1.9-4.3 4.2c0-1.5-.8-2.8-2-3.5 1.9-.9 3.1-2.8 3.1-5 0-2.1-1.2-4-3-4.9 3.8-.3 6.6-1.1 6.6-2.1 0-.8-1.7-1.5-4.2-1.8.4-.2.7-.4 1-.7 1.4-1.4 1.4-3.7 0-5.1l-1.4-1.4 1.4-1.4c1.4-1.4 1.4-3.7 0-5.1-1.4-1.4-3.7-1.4-5.1 0l-1.4 1.4-1.4-1.4c-1.4-1.4-3.7-1.4-5.1 0-1.4 1.4-1.4 3.7 0 5.1l1.4 1.4-1.4 1.4c-1.4 1.4-1.4 3.7 0 5.1.4.4.9.7 1.4.8-2.1.4-3.5 1-3.5 1.7 0 1 2.8 1.8 6.6 2.1-1.8.9-3 2.8-3 4.9 0 2.3 1.3 4.2 3.3 5.1-1.2.8-1.9 2.1-1.9 3.6 0-2.4-1.9-4.3-4.3-4.3s-4.3 1.9-4.3 4.3c0-2.4-1.9-4.3-4.3-4.3-2.3 0-4.2 1.8-4.3 4v.3c0 .5 7.3 43.6 7.3 43.6-2.8.6-4.4 1.3-4.4 2.1s1.8 1.6 4.7 2.1c.5.1.9.6.9 1.1v2.1c0 1-.8 1.8-1.8 1.8-2.1 0-3.9 1.6-4.1 3.6-.2 2.4 1.7 4.3 4 4.3h-4.8c-2.2 0-4.1 1.7-4.1 3.9 0 .6.1 1.1.3 1.6-27.7 3.7-48.4 28.3-46.7 56.6 1.5 25.4 20.7 45.7 44.8 49.8-.1.4-.2.7-.2 1.1 0 1.7 1 3.1 2.5 3.6-1.4.6-2.5 2-2.5 3.6 0 2.2 1.8 3.9 3.9 3.9 0 0 .1 0 .1.1-5.8 3.5-9.5 8.5-9.5 14.1 0 5.2 3.2 9.9 8.3 13.4H88c-2.2 0-3.9 1.8-3.9 3.9 0 2.2 1.8 3.9 3.9 3.9h52.6c2.2 0 3.9-1.8 3.9-3.9 0-2.2-1.8-3.9-3.9-3.9h-4.7c5.1-3.5 8.3-8.2 8.3-13.4 0-5.6-3.6-10.6-9.5-14.1 0 0 .1 0 .1-.1 2.2 0 3.9-1.8 3.9-3.9 0-1.7-1-3.1-2.5-3.6 1.4-.6 2.5-2 2.5-3.6 0-1-.4-1.9-1-2.6l5.3-.3c29.6-1.7 52.4-27.4 50.6-56.9zM113.1 36.3c.2-.1.4-.3.6-.5l1.4-1.4 1.4 1.4c.2.2.3.3.5.4h-1.4c-.9 0-1.7 0-2.5.1z"/>
    <path class="fst1" d="M93.2 159c-3.8-3.4-8.8-4.9-15.2-4.5-2.4.1-5 .6-7.7 1.5-1.5.5-2.7 1-3.6 1.6-.9.6-2.1 1.7-3.6 3.3l-1.1.1c1.2-1.8 2.4-3.2 3.5-4.1 1.1-.9 2.5-1.8 4.2-2.5 2.5-1.1 5.2-1.7 8.2-1.9 3.2-.2 6.1.1 8.8 1 1.7.5 3.1 1.2 4.2 2s2.3 1.9 3.6 3.4l-1.3.1zm32.5 8.6c.7 12.1-3.4 19.1-11.3 19.6-7 .4-12.1-5.8-12.9-17.6-.7-12 4-18.9 11.3-19.3 7.5-.5 12.2 6 12.9 17.3zm-19.4 1.7c.6 9.3 3.7 14.4 8.1 14.1 4.9-.3 7-6.2 6.4-15.3-.5-8.8-3.1-14.4-8.1-14.1-4.2.3-6.9 5.6-6.4 15.3zm55.9-14.4c-3.8-3.4-8.8-4.9-15.2-4.5-2.4.1-5 .6-7.7 1.5-1.5.5-2.7 1-3.6 1.6-.9.6-2.1 1.7-3.6 3.3l-1.1.1c1.2-1.8 2.4-3.2 3.5-4.1 1.1-.9 2.5-1.8 4.2-2.5 2.5-1.1 5.2-1.7 8.2-1.9 3.2-.2 6.1.1 8.8 1 1.7.5 3.1 1.2 4.2 2s2.3 1.9 3.6 3.4l-1.3.1z"/>
</svg>