<svg viewBox="0 0 17 20" xmlns="http://www.w3.org/2000/svg">
<path fill-rule="evenodd" clip-rule="evenodd" d="M9.24099 13.5694L9.69737 13.1226C10.3457 12.488 10.6557 12.1478 11.024 11.7435C11.1095 11.6497 11.198 11.5525 11.2947 11.4474L12.1504 12.4525C12.0537 12.5386 11.9638 12.6179 11.8782 12.6936C11.4079 13.1089 11.0664 13.4106 10.439 14.0719L8.55643 15.9705L6.84502 14.3511C6.04636 13.6252 5.47589 13.1226 4.84838 12.6201L5.64703 11.5032C5.97303 11.8578 6.29902 12.1673 6.69802 12.5462C6.92743 12.764 7.18098 13.0048 7.47254 13.2901L7.75777 13.5694L7.75777 0H9.24099L9.24099 13.5694ZM0 20V14.9631H1.48322V18.4889H15.5168V14.9631H17V20H0Z"/>
</svg>
