<svg viewBox="0 0 14 21" xmlns="http://www.w3.org/2000/svg">
  <path d="M5.05282 4.98063C5.19718 4.90845 5.26937 4.76408 5.05282 4.61972C4.54754 4.11444 4.18662 3.46479 4.18662 2.81514C4.18662 1.37148 5.5581 0 7.00176 0C8.37324 0 9.52817 1.37148 9.52817 2.52641C9.52817 3.39261 9.02289 4.11444 8.30106 4.61972C8.15669 4.76408 8.22887 4.83627 8.44542 4.90845C9.8169 5.41373 11.1162 6.4243 11.1162 8.15669C11.1162 9.67254 10.4666 10.6831 9.45599 11.2606C9.31162 11.3327 9.31162 11.5493 9.45599 11.6215C12.1268 12.993 13.6426 15.6637 13.6426 18.3345C13.6426 19.4173 13.4982 20.0669 13.2095 20.5H0.433099C0.144366 19.9947 0 19.3451 0 18.3345C0 15.8081 1.37148 12.993 4.04225 11.6937C4.18662 11.6215 4.2588 11.4049 3.97007 11.2606C3.17606 10.6831 2.59859 9.74472 2.59859 8.51761C2.59859 6.64085 3.8257 5.63028 5.05282 4.98063Z"/>
</svg>