<svg version="1.1" id="Layer_1" xmlns="http://www.w3.org/2000/svg" xmlns:xlink="http://www.w3.org/1999/xlink" x="0px" y="0px"
	 viewBox="0 0 83.2 20.5" style="enable-background:new 0 0 83.2 20.5;" xml:space="preserve">
<style type="text/css">
	.st0{opacity:0.6;fill:#FFFFFF;enable-background:new    ;}
	.st1{fill:#FFFFFF;}
</style>
<path class="st0" d="M50.3,5.8h-3.8v10.8h-3V5.8h-3.8V3.3h10.6V5.8z"/>
<path class="st0" d="M59.2,16.6h-8V3.3h7.7v2.4h-4.7v3h4.4v2.4h-4.4v3h5V16.6z"/>
<path class="st0" d="M70,16.3c-1,0.5-2.3,0.7-3.8,0.7c-2.1,0-3.7-0.6-4.8-1.8c-1.2-1.2-1.8-2.8-1.8-4.8c0-2.1,0.7-3.8,2-5.2
	c1.3-1.3,3-2,5.2-2c1.3,0,2.4,0.2,3.3,0.5v2.9c-0.9-0.5-1.9-0.8-3.1-0.8c-1.3,0-2.3,0.4-3,1.2c-0.8,0.8-1.2,1.8-1.2,3.2
	c0,1.3,0.4,2.3,1.1,3.1c0.7,0.8,1.7,1.1,2.9,1.1c1.2,0,2.3-0.3,3.2-0.9V16.3z"/>
<path class="st0" d="M83.2,16.6h-3v-5.4h-5.5v5.4h-3V3.3h3v5.3h5.5V3.3h3V16.6z"/>
<path class="st1" d="M37.1,20.5H0V0h37.1l0,0.2l2.2,10.3L37.1,20.5z M0.5,20h36.2l2.1-9.5l-2.1-10H0.5V20z"/>
<path class="st0" d="M13.8,11.2c0,4-1.9,6-5.6,6c-3.6,0-5.5-1.9-5.5-5.8V3.6h3v7.7c0,2.1,0.8,3.2,2.5,3.2c1.7,0,2.5-1,2.5-3.1V3.6h3
	V11.2z"/>
<path class="st0" d="M14.9,16.3v-3c0.5,0.5,1.1,0.8,1.8,1c0.6,0.2,1.3,0.3,1.9,0.3c0.4,0,0.7,0,1-0.1c0.3-0.1,0.5-0.2,0.7-0.3
	c0.2-0.1,0.3-0.3,0.4-0.4c0.1-0.2,0.1-0.3,0.1-0.5c0-0.3-0.1-0.5-0.2-0.7c-0.1-0.2-0.4-0.4-0.6-0.6c-0.3-0.2-0.6-0.3-0.9-0.5
	c-0.4-0.2-0.7-0.3-1.1-0.5c-1-0.4-1.8-1-2.3-1.6c-0.5-0.6-0.8-1.4-0.8-2.3c0-0.7,0.1-1.3,0.4-1.8c0.3-0.5,0.7-0.9,1.1-1.2
	s1-0.6,1.7-0.7c0.6-0.2,1.3-0.2,2-0.2c0.7,0,1.3,0,1.9,0.1c0.5,0.1,1,0.2,1.5,0.4v2.8c-0.2-0.2-0.5-0.3-0.7-0.4
	c-0.3-0.1-0.5-0.2-0.8-0.3c-0.3-0.1-0.6-0.1-0.8-0.2c-0.3,0-0.5-0.1-0.8-0.1c-0.3,0-0.7,0-0.9,0.1c-0.3,0.1-0.5,0.2-0.7,0.3
	c-0.2,0.1-0.3,0.3-0.4,0.4S18,6.8,18,7c0,0.2,0.1,0.4,0.2,0.6c0.1,0.2,0.3,0.3,0.5,0.5c0.2,0.2,0.5,0.3,0.8,0.5
	c0.3,0.2,0.7,0.3,1.1,0.5c0.5,0.2,1,0.5,1.4,0.7c0.4,0.2,0.8,0.5,1.1,0.8c0.3,0.3,0.5,0.7,0.7,1.1c0.2,0.4,0.2,0.9,0.2,1.4
	c0,0.7-0.1,1.4-0.4,1.9c-0.3,0.5-0.7,0.9-1.2,1.2c-0.5,0.3-1.1,0.5-1.7,0.7c-0.6,0.1-1.3,0.2-2,0.2c-0.7,0-1.4-0.1-2.1-0.2
	C16,16.7,15.4,16.6,14.9,16.3z"/>
<path class="st0" d="M33.4,16.9h-8V3.6h7.7v2.4h-4.7v3h4.4v2.4h-4.4v3h5V16.9z"/>
</svg>
