<svg xmlns="http://www.w3.org/2000/svg" viewBox="0 0 19 16" xmlns:xlink="http://www.w3.org/1999/xlink">
  <path d="M6.3 15.5c-2 0-3.9-.6-5.6-1.7-.2-.1-.3-.4-.2-.6.1-.2.3-.4.5-.3 1.4.1 2.8-.1 4-.8-.7-.4-1.5-1.1-2.1-2C2.1 8.8.7 5.9 1.7 1.5c0-.2.2-.3.4-.4.2 0 .4 0 .5.2 1.2 1.8 3.6 3.1 6.2 3.4v-.3c0-2.2 1.8-4 4-4 1 0 2 .4 2.7 1.1.6-.2 1.3-.4 1.8-.7.2-.1.3-.1.5 0s.2.3.2.4c.1 2.1-.8 3.1-1.3 3.5v.2c0 .7-.1 1.5-.2 2.2-.9 4.2-4.4 8.4-10.2 8.4zM3 13.9c1.1.4 2.2.6 3.3.6 5.2 0 8.4-3.8 9.2-7.5.1-.7.2-1.4.2-2v-.5c0-.2.1-.3.2-.4 0 0 .8-.5 1-2-.5.2-1.1.4-1.6.5-.2 0-.4 0-.5-.2-.6-.6-1.3-1-2.2-1-1.6 0-3 1.4-3 3 0 .2 0 .4.1.7 0 .2 0 .3-.1.4.1.3-.1.4-.2.3-2.7-.1-5.3-1.3-6.9-3-.5 3.4.6 5.7 1.3 6.8.9 1.3 1.8 1.8 2.4 1.9.2 0 .4.2.4.4.1.2 0 .4-.2.5-1 .8-2.1 1.3-3.4 1.5z" />
</svg>
