<svg viewBox="0 0 24 19" xmlns="http://www.w3.org/2000/svg">
<path d="M23.5714 2.62716C22.6949 3.00002 21.7608 3.24716 20.7871 3.36716C21.7888 2.78716 22.5534 1.87573 22.9129 0.77716C21.9789 1.31716 20.9476 1.69859 19.8486 1.91145C18.9617 0.995732 17.6977 0.428589 16.3188 0.428589C13.6434 0.428589 11.4896 2.5343 11.4896 5.11573C11.4896 5.48716 11.522 5.8443 11.6016 6.1843C7.58411 5.9943 4.02924 4.12716 1.64116 1.28287C1.22424 1.9843 0.979688 2.78716 0.979688 3.65145C0.979688 5.2743 1.84152 6.71287 3.12616 7.54573C2.34978 7.53145 1.58812 7.31287 0.942857 6.96859C0.942857 6.98287 0.942857 7.00145 0.942857 7.02002C0.942857 9.29716 2.6179 11.1886 4.81446 11.6243C4.42112 11.7286 3.99241 11.7786 3.5475 11.7786C3.23812 11.7786 2.9258 11.7614 2.63263 11.6986C3.25875 13.5543 5.03545 14.9186 7.14804 14.9629C5.50393 16.21 3.41638 16.9614 1.15647 16.9614C0.760179 16.9614 0.380089 16.9443 0 16.8972C2.14058 18.2357 4.67746 19 7.41321 19C16.3055 19 21.1671 11.8572 21.1671 5.66573C21.1671 5.45859 21.1598 5.25859 21.1495 5.06002C22.1085 4.40002 22.9144 3.57573 23.5714 2.62716Z"/>
</svg>
