<svg width="100%" height="100%" viewBox="0 0 247.1 305" fill="none" xmlns="http://www.w3.org/2000/svg">
	<style>.st0{fill:#ffc1a8}.kst1{fill:#fff}.st2{fill:#00c24f}.st3{fill:#f64747}.st4{fill:#a58aff}.st5{clip-path:url(#SVGID_2_)}.st6{clip-path:url(#SVGID_4_);fill:#737373}.st7{clip-path:url(#SVGID_6_)}.st8{clip-path:url(#SVGID_8_);fill:#1dbf55}.st9{clip-path:url(#SVGID_10_)}.st10{clip-path:url(#SVGID_12_);fill:#f2494c}.st11{clip-path:url(#SVGID_14_)}.st12{clip-path:url(#SVGID_16_);fill:#a48cfb}</style>
    <path class="kst1" d="M181.7 130.8c-9.9-16.6-26.9-26.5-44.9-28.1.9-.7 1.5-1.8 1.5-3.1 0-2.2-1.8-3.9-3.9-3.9h-1.2c.7-.7 1.2-1.6 1.2-2.7.1-2.2-1.7-4.1-3.9-4.1-.8 0-1.4-.6-1.4-1.4v-5c3.4-.6 5.6-1.5 5.6-2.6 0-.8-1.5-1.6-3.9-2.2 0 0 9-25.2 9.1-26.3v-.6c0-3.5-2.8-6.4-6.2-6.4-.8 0-1.6.2-2.3.5-1.3-6.2-5-11-9.7-12.1 1.9-.8 3.2-2.7 3.2-4.9 0-2.9-2.4-5.3-5.3-5.3s-5.3 2.4-5.3 5.3c0 2.1 1.3 4 3.1 4.8-4.7 1.1-8.5 5.9-9.8 12.2-.7-.3-1.5-.5-2.3-.5-3.4 0-6.2 2.8-6.2 6.4v.6c.1 1.1 9.1 26.3 9.1 26.3-2.4.6-3.9 1.4-3.9 2.2 0 1 2.2 1.9 5.6 2.6v5c0 .8-.6 1.4-1.4 1.4H107c-2.2 0-4 1.7-4.1 3.8 0 1.1.4 2.2 1.2 2.9H103c-2.2 0-3.9 1.8-3.9 3.9 0 2.2 1.8 3.9 3.9 3.9h.7c-.4.6-.7 1.4-.7 2.2 0 1.4.7 2.6 1.7 3.3-1 .5-1.9 1-2.8 1.6l-16.5 9.9c-27.5 16.4-36.6 52.4-20.2 79.9 7.9 13.3 20.4 22.3 34.4 26.2-.3.5-.5 1.1-.5 1.8 0 2 1.6 3.6 3.6 3.6-2 0-3.6 1.6-3.6 3.6s1.6 3.6 3.6 3.6h.5v2.4c.1 5-1.2 10-3.8 14.3l-4.4 7.4h-1.8c-2 0-3.6 1.6-3.6 3.6s1.6 3.6 3.6 3.6H95c-1.4 0-2.5 1.1-2.5 2.5s1.1 2.5 2.5 2.5h49c1.4 0 2.5-1.1 2.5-2.5s-1.1-2.5-2.5-2.5h1.8c2 0 3.6-1.6 3.6-3.6s-1.6-3.6-3.6-3.6h-2.1l-4.4-7.3c-2.6-4.3-3.9-9.1-3.8-14.1v-2.7h.8c2 0 3.6-1.6 3.6-3.6s-1.6-3.6-3.6-3.6c2 0 3.6-1.6 3.6-3.6 0-1.9-1.5-3.5-3.4-3.6 2.9-1.1 5.7-2.5 8.5-4.2l16.5-9.9c27.5-16.3 36.6-52.2 20.2-79.8z"/>
    <path d="M78.2 183.5l-2.4-3.7 18.7-12c.7-.4 1.2-.9 1.7-1.5s.8-1.1 1-1.7c.2-.6.3-1.2.2-1.9-.1-.6-.3-1.3-.7-1.8-.3-.4-.6-.8-1-1.1-.4-.3-.8-.6-1.2-.8-.4-.2-.8-.4-1.2-.5-.4-.1-.8-.2-1.1-.3l.6-2.3c1.7.3 3.1.9 4.3 1.7 1.2.8 2.1 1.8 2.8 2.8.4.7.7 1.4.9 2.2.2.8.3 1.7.2 2.6-.1.9-.3 1.8-.8 2.7-.4.9-1.1 1.7-1.9 2.5 1.2 0 2.3.1 3.5.4s2.3.7 3.4 1.3c1.1.6 2.1 1.3 3.1 2.3 1 .9 1.8 2 2.6 3.2 1.1 1.8 1.9 3.6 2.2 5.6.3 2 .3 3.9-.2 5.8-.4 1.9-1.2 3.7-2.3 5.4-1.1 1.7-2.6 3.1-4.4 4.2-1.8 1.1-3.7 1.9-5.7 2.2-2 .3-4 .3-5.9-.1-1.9-.4-3.7-1.2-5.4-2.3-1.7-1.1-3.1-2.6-4.2-4.3-1.6-2.4-2.4-4.9-2.6-7.3-.2-2.4.2-4.7 1.1-6.8l-5.3 3.5zm8.4 7.9c.8 1.3 1.9 2.4 3.2 3.1 1.3.8 2.7 1.3 4.2 1.5 1.5.2 3.1.2 4.7-.2 1.6-.3 3.2-1 4.6-1.9s2.7-2.1 3.7-3.4c1-1.3 1.7-2.7 2.1-4.2.4-1.5.5-3 .4-4.5-.2-1.5-.7-2.9-1.5-4.2-.8-1.3-1.9-2.4-3.2-3.1-1.3-.8-2.7-1.3-4.2-1.5-1.5-.2-3.1-.2-4.7.2-1.6.3-3.2 1-4.6 1.9-1.5.9-2.7 2.1-3.7 3.4-1 1.3-1.7 2.7-2.1 4.2-.4 1.5-.5 3-.4 4.5.1 1.5.7 2.9 1.5 4.2zm8-5.5c.4.7 1.1 1.1 1.8 1.3s1.5 0 2.2-.4c.7-.5 1.1-1.1 1.3-1.8s0-1.5-.4-2.2c-.4-.7-1.1-1.1-1.8-1.3s-1.5 0-2.2.4c-.7.5-1.1 1.1-1.3 1.9s0 1.5.4 2.1zm55.9-10.4l1.7 2.6-25.8 16.6-1.7-2.6 25.8-16.6zm-16-28.2l-2.4-3.7 18.7-12c.7-.4 1.2-.9 1.7-1.5s.8-1.1 1-1.7c.2-.6.3-1.2.2-1.9-.1-.6-.3-1.3-.7-1.8-.3-.4-.6-.8-1-1.1-.4-.3-.8-.6-1.2-.8-.4-.2-.8-.4-1.2-.5-.4-.1-.8-.2-1.1-.3l.6-2.3c1.7.3 3.1.9 4.3 1.7 1.2.8 2.1 1.8 2.8 2.8.4.7.7 1.4.9 2.2.2.8.3 1.7.2 2.6-.1.9-.3 1.8-.8 2.7-.4.9-1.1 1.7-1.9 2.5 1.2 0 2.3.1 3.5.4s2.3.7 3.4 1.3 2.1 1.3 3.1 2.2 1.9 2 2.6 3.2c1.1 1.8 1.9 3.6 2.2 5.6.3 2 .3 3.9-.2 5.8-.4 1.9-1.2 3.7-2.3 5.4s-2.6 3.1-4.4 4.2c-1.8 1.1-3.7 1.9-5.7 2.2-2 .3-4 .3-5.9-.1-1.9-.4-3.7-1.2-5.4-2.3-1.7-1.1-3.1-2.6-4.2-4.3-1.6-2.4-2.4-4.9-2.6-7.3-.2-2.4.2-4.7 1.1-6.8l-5.3 3.6zm8.3 8c.8 1.3 1.9 2.4 3.2 3.1 1.3.8 2.7 1.3 4.2 1.5 1.5.2 3.1.2 4.7-.2 1.6-.3 3.2-1 4.6-1.9 1.5-.9 2.7-2.1 3.7-3.4 1-1.3 1.7-2.7 2.1-4.2.4-1.5.5-3 .4-4.5-.2-1.5-.7-2.9-1.5-4.2-.8-1.3-1.9-2.4-3.2-3.1-1.3-.8-2.7-1.3-4.2-1.5-1.5-.2-3.1-.2-4.7.2-1.6.3-3.2 1-4.6 1.9-1.5.9-2.7 2.1-3.7 3.4-1 1.3-1.7 2.7-2.1 4.2-.4 1.5-.5 3-.4 4.5.2 1.5.7 2.9 1.5 4.2zm8-5.5c.4.7 1.1 1.1 1.8 1.3.8.2 1.5 0 2.2-.4.7-.5 1.1-1.1 1.3-1.8.2-.8 0-1.5-.4-2.2-.4-.7-1.1-1.1-1.8-1.3-.8-.2-1.5 0-2.2.4-.7.5-1.1 1.1-1.3 1.9-.2.6 0 1.4.4 2.1z"/>
</svg>