<svg width="28" height="25" viewBox="0 0 28 25" xmlns="http://www.w3.org/2000/svg">
<path d="M5.97122 8.92634C5.57364 9.09971 5.17865 9.26825 4.57597 9.55246L2.28799 10.6987L1.25294 8.67904C0.762662 7.75114 0.381331 7.09605 0 6.44108L0.980548 5.78599C1.30744 6.49569 1.57983 7.04144 2.0701 8.02407L2.17904 8.29701C3.86781 3.43892 8.49823 0 13.8914 0C19.448 0 24.1873 3.71173 25.7671 8.73365C25.8585 8.91668 25.9115 9.1381 25.9584 9.33351C25.9674 9.37116 25.9762 9.40794 25.985 9.44323H24.5686C23.2068 4.80347 18.9576 1.36467 13.8914 1.36467C9.043 1.36467 4.90286 4.53054 3.43198 8.89736L4.1402 8.56982C5.12075 8.07856 5.50208 7.86024 6.1558 7.53282L6.64607 8.62443C6.39871 8.73885 6.1846 8.83322 5.97122 8.92634Z" />
<path fill-rule="evenodd" clip-rule="evenodd" d="M25.7665 14.5743L26.8016 16.5939C27.3463 17.5218 27.6732 18.1223 28 18.8319L26.965 19.4323C26.8073 19.0899 26.6622 18.7857 26.4993 18.4522C26.3246 18.0944 26.1292 17.7028 25.8755 17.1944L25.6576 16.7576C23.9143 21.5612 19.3383 25 13.9452 25C8.33416 25 3.54031 21.179 2.01498 15.9934H3.54031C5.01119 20.4149 9.15133 23.6355 14.0542 23.6355C18.7936 23.6355 22.8248 20.6332 24.4046 16.4302L23.9143 16.7031C23.6391 16.8411 23.4111 16.9531 23.211 17.0515C22.6982 17.3035 22.3689 17.4653 21.8987 17.7402L21.4084 16.6485C21.9735 16.4463 22.3293 16.274 22.8524 16.0207C23.0353 15.9321 23.2386 15.8337 23.4785 15.7206L25.7665 14.5743ZM25.2762 15.9389L25.2217 15.9934H25.2762V15.9389Z" />
</svg>
