<svg version="1.1" id="Layer_1" xmlns="http://www.w3.org/2000/svg" xmlns:xlink="http://www.w3.org/1999/xlink" x="0px" y="0px"
	 viewBox="0 0 24 26" style="enable-background:new 0 0 24 26;" xml:space="preserve">
<path d="M19.7,9.4c1.2-0.6,2.3-1.4,3-2.3c0.9-1.2,1.2-2.6,0.8-4C23,1,20.7-0.3,18,0.1c-2.4,0.3-4.9,2-6,5.5C10.8,2,8.3,0.4,6,0.1
	C3.3-0.3,1,1,0.5,3c-0.4,1.4-0.1,2.8,0.8,4c0.7,1,1.8,1.7,3,2.3H0V26h11.3h1.5H24V9.4H19.7z M18.2,1.5c1.9-0.3,3.6,0.6,4,1.9
	c0.3,1,0.1,1.9-0.6,2.8c-1.6,2.1-5.4,3.2-7,3.2h-1.9C13,4.1,15.7,1.8,18.2,1.5z M2.4,6.2C1.7,5.3,1.5,4.4,1.8,3.4
	c0.4-1.4,2.1-2.2,4-1.9c2.5,0.3,5.2,2.6,5.5,7.9H9.4C7.8,9.4,4,8.3,2.4,6.2z M1.4,24.6V10.8h9.9v13.7H1.4z M22.6,24.6h-9.8V10.8h9.8
	V24.6z"/>
</svg>
