<svg width="14" height="14" viewBox="0 0 14 14" xmlns="http://www.w3.org/2000/svg">
<path fill-rule="evenodd" clip-rule="evenodd" d="M7.92964 12.8272C10.5689 12.4094 12.6259 10.2418 12.8747 7.55001H9.77435C9.63713 9.44671 8.99765 11.2672 7.92964 12.8272ZM6.99995 14C6.99997 14 6.99998 14 7 14C10.866 14 14 10.866 14 7C14 3.13401 10.866 0 7 0C6.99998 0 6.99997 0 6.99995 0C3.13398 2.62855e-05 0 3.13402 0 7C0 10.866 3.13398 14 6.99995 14ZM6.07024 1.17284C3.43106 1.59062 1.37412 3.7583 1.1253 6.45001H4.22555C4.36277 4.55331 5.00224 2.73283 6.07024 1.17284ZM5.32876 7.55001C5.46481 9.23627 6.0434 10.8527 6.99995 12.2378C7.9565 10.8527 8.53509 9.23627 8.67114 7.55001H5.32876ZM4.22556 7.55001C4.36278 9.4467 5.00225 11.2672 6.07025 12.8272C3.43107 12.4094 1.37413 10.2417 1.1253 7.55001H4.22556ZM8.67114 6.45001H5.32876C5.46481 4.76375 6.0434 3.14732 6.99995 1.76219C7.9565 3.14732 8.5351 4.76375 8.67114 6.45001ZM9.77435 6.45001C9.63713 4.55331 8.99766 2.73281 7.92965 1.17282C10.5689 1.59056 12.6259 3.75826 12.8747 6.45001H9.77435Z"/>
</svg>
