<svg width="18" height="18" viewBox="0 0 18 18" xmlns="http://www.w3.org/2000/svg">
<path fill-rule="evenodd" clip-rule="evenodd" d="M7.83127 1.73684C4.46731 1.73684 1.74028 4.45848 1.74028 7.81578C1.74028 11.1731 4.46731 13.8947 7.83127 13.8947C9.45373 13.8947 10.9264 13.2628 12.0187 12.2303C13.1921 11.1212 13.9223 9.55436 13.9223 7.81578C13.9223 4.45848 11.1952 1.73684 7.83127 1.73684ZM0 7.81578C0 3.49925 3.50618 0 7.83127 0C12.1564 0 15.6625 3.49925 15.6625 7.81578C15.6625 9.72075 14.9789 11.4673 13.8446 12.8229L18 16.7368L16.8056 18L12.5865 14.0262C11.2684 15.0327 9.61924 15.6316 7.83127 15.6316C3.50618 15.6316 0 12.1323 0 7.81578Z" />
</svg>
