<svg xmlns="http://www.w3.org/2000/svg" xmlns:xlink="http://www.w3.org/1999/xlink" viewBox="0 0 329.8 71.9">
  <path class="ast2" d="M148.5 36.1c0 12.5-7.6 18.4-17.1 18.4h-5.8V47h5.4c5.7 0 9.6-3.1 9.6-10.9 0-7.7-3.6-11.6-9.7-11.6-5.9 0-10.1 3.6-10.1 11.4v31.3h-7.9V18h7.9v4.2h1.1c2.6-3.6 6.6-5.1 10.6-5.1 8.6 0 16 6.4 16 19zm-52.2-3.2l-5.3-.6c-4.2-.4-6.4-1.5-6.4-3.9 0-2.9 2.8-4.5 6.8-4.5 4.2 0 6.8 2 7 4.8h7.6c-.3-7.1-5.8-11.5-14.6-11.5s-14.8 4.7-14.8 11.6c0 5.7 3.6 9.5 11.9 10.3l5.4.5c3.3.3 5.4 1 5.4 4.1 0 2.8-2 4.8-7.4 4.8-4.9 0-7.4-2.2-8.2-5.3h-8.3c.8 6.9 6.6 12.2 16.5 12.2 9.3 0 15.4-4.9 15.4-12.2 0-6.4-4.2-9.6-11-10.3zm82.9 10.3c-1.2 2.9-4.2 5-8.4 5-5.8 0-10.1-3.8-10.1-11.9 0-7.8 4-12.1 10.2-12.1 5.5 0 8.7 3.3 9 8.3h-14.3v5.7h22.1v-3.8c0-10.5-7-17.3-16.9-17.3-9.2 0-18.1 6.3-18.1 19.1s8.8 19.1 18.1 19.1c8.4 0 14.5-5.2 16.3-12.2h-7.9zM54.4 17.1c-8.7 0-15.2 4.5-16 11.5H47c.6-2.6 2.9-4.5 7.4-4.5 5.7 0 7.6 3 7.6 6.7v12.5c-3.3 3.7-7 5.4-10.8 5.4-3.9 0-6.7-1.9-6.7-5.3 0-3.3 2.1-5.3 6.2-5.3h6.4v-5.7h-6.6c-9.1 0-14.1 4.5-14.1 11.5 0 6.5 4.9 11.4 13 11.4 4.5 0 8.5-1.8 11.5-4H62v3.1h8V30.1c0-9-6.2-13-15.6-13zM.5 54.5h7.9V4.6H.5v49.9zM33.8 18h-9.7L12.6 33.2V38l11.9 16.5h9.8L20.4 35.6 33.8 18zm286.7 0L314 32.5c-1.6 3.5-3.1 6.9-3.6 9.2h-1.1c-.5-2.3-2-5.6-3.6-9.1L299.2 18h-8.8l15.3 32.7-7.6 16.5h8.5L329.3 18h-8.8zm-31.8 0H279l-11.6 15.2V38l11.9 16.5h9.8l-13.9-18.9L288.7 18zM239 32.9l-5.3-.5c-4.2-.4-6.4-1.5-6.4-3.9 0-2.9 2.8-4.5 6.8-4.5 4.2 0 6.8 2 7 4.8h7.6c-.3-7.1-5.8-11.5-14.6-11.5s-14.8 4.7-14.8 11.6c0 5.7 3.6 9.5 11.9 10.3l5.4.5c3.3.3 5.4 1 5.4 4.1 0 2.8-2 4.8-7.4 4.8-4.9 0-7.4-2.2-8.2-5.3h-8.3c.8 6.9 6.6 12.2 16.5 12.2 9.3 0 15.4-4.9 15.4-12.2 0-6.5-4.2-9.7-11-10.4zm16.3 21.6h7.9V4.6h-7.9v49.9zM203 22.3h-1.1V18H194v36.4h7.9v-19c0-6.5 3-10.3 8.9-10.3h5v-8h-2.9c-5.5 0-7.8 2.1-9.9 5.2z"/>
</svg>
