<svg width="14" height="14" viewBox="0 0 14 14" xmlns="http://www.w3.org/2000/svg">
<path fill-rule="evenodd" clip-rule="evenodd" d="M13.3889 0.611119C13.5532 0.775477 13.5965 1.02541 13.497 1.23548L7.81281 13.2355C7.71336 13.4454 7.49273 13.5702 7.26156 13.5474C7.03038 13.5245 6.83852 13.3588 6.78218 13.1334L5.59905 8.40094L0.86657 7.21782C0.641201 7.16147 0.475532 6.96961 0.452642 6.73843C0.429751 6.50726 0.554574 6.28663 0.764517 6.18718L12.7645 0.502972C12.9746 0.403469 13.2245 0.446761 13.3889 0.611119ZM2.62431 6.5234L6.18599 7.41382C6.38305 7.46308 6.53691 7.61694 6.58617 7.814L7.4766 11.3757L11.8437 2.15634L2.62431 6.5234Z"/>
</svg>
