<svg width="25" height="26" viewBox="0 0 25 26" xmlns="http://www.w3.org/2000/svg">
<path d="M22.0172 12.7806L17.9345 11.6287C17.8793 11.135 17.769 10.5865 17.6034 10.1477L21.4655 6.19831L19.5896 0L18.1 0.438819L19.7 5.75949L16.8862 8.61182C15.8931 6.91139 14.2379 5.81435 12.4172 5.81435C10.6517 5.81435 9.05171 6.85654 8.00343 8.50211L5.29999 5.75949L6.89999 0.438819L5.41034 0L3.53448 6.19831L7.2862 9.98312C7.12068 10.5316 6.95516 11.0802 6.89999 11.6835L2.98276 12.7806L0.5 15.5781L1.65861 16.6203L3.8655 14.2068L6.84483 13.384C6.9 14.481 7.17586 15.5232 7.61724 16.4008L4.30689 19.7468L6.18275 25.9451L7.67241 25.5063L6.0724 20.1857L8.44482 17.7722C9.43793 19.0338 10.8724 19.8565 12.4172 19.8565C14.0172 19.8565 15.4517 19.0338 16.4448 17.7173L18.9276 20.2405L17.3276 25.5612L18.8172 26L20.6931 19.8017L17.2724 16.2911C17.6586 15.4135 17.9345 14.3713 17.9896 13.3291L21.1345 14.2068L23.3414 16.6203L24.5 15.5781L22.0172 12.7806ZM12.4724 18.2658C10.3207 18.2658 8.44482 15.7975 8.44482 12.8354C8.44482 9.87342 10.2655 7.40506 12.4724 7.40506C14.6793 7.40506 16.5 9.87342 16.5 12.8354C16.5 15.7426 14.6241 18.2658 12.4724 18.2658Z"/>
</svg>
