<svg width="100%" height="100%" viewBox="0 0 247.1 305" fill="none" xmlns="http://www.w3.org/2000/svg">
	<style>.st0{fill:#ffc1a8}.bst1{fill:#fff}.st2{fill:#00c24f}.st3{fill:#f64747}.st4{fill:#a58aff}.st5{clip-path:url(#SVGID_2_)}.st6{clip-path:url(#SVGID_4_);fill:#737373}.st7{clip-path:url(#SVGID_6_)}.st8{clip-path:url(#SVGID_8_);fill:#1dbf55}.st9{clip-path:url(#SVGID_10_)}.st10{clip-path:url(#SVGID_12_);fill:#f2494c}.st11{clip-path:url(#SVGID_14_)}.st12{clip-path:url(#SVGID_16_);fill:#a48cfb}</style>
    <path d="M145.9 212.9c35-12.7 53.3-51.8 40.6-86.9-8.8-24.1-30.1-40.3-53.9-43.9.5-.7.8-1.5.8-2.4 0-1.7-1-3.1-2.4-3.7 1.4-.6 2.4-2 2.4-3.7 0-2-1.4-3.6-3.3-4l13.2-18.5-6-2.8 8.6-9.7-24.8-13.1c1.4-1 2.4-2.6 2.4-4.5 0-3-2.4-5.4-5.4-5.4s-5.4 2.4-5.4 5.4c0 1.7.8 3.3 2.1 4.3h-.1c.1 0 .1.1.2.1 0 0 .1 0 .1.1L90 37.3l8.6 9.7-6 2.8 13.2 18.5c-1.9.4-3.3 2-3.3 4 0 1.7 1 3.1 2.4 3.7-1.4.6-2.4 2-2.4 3.7 0 1.9 1.3 3.4 3 3.9-1.9.5-3.9 1.1-5.8 1.8L95.5 87c-35 12.7-53.3 51.8-40.6 86.9 8.2 22.7 27.5 38.3 49.6 43.1h-1c-2.2 0-3.9 1.8-3.9 3.9 0 2.2 1.8 3.9 3.9 3.9h.1l-13 10.1 6.7 7.9-10.4 9 10.7 14.8h-3.2c-2.2 0-3.9 1.8-3.9 3.9 0 2.2 1.8 3.9 3.9 3.9h46.8c2.2 0 3.9-1.8 3.9-3.9 0-2.2-1.8-3.9-3.9-3.9H138l10.7-14.8-10.4-9 6.7-7.9-13-10.1h.1c2.2 0 3.9-1.8 3.9-3.9 0-2-1.4-3.6-3.3-3.9 3-.6 6.1-1.5 9.1-2.6l4.1-1.5z"/>
    <path class="bst1" d="M94.8 157.3l-4.5 1.5c-.9-2.8-2.3-4.8-4-6.2-2.1-1.6-4.4-2-7-1.1-2.6.9-4.3 2.6-4.9 5.2-.5 2.2-.3 4.6.6 7.4l-4.5 1.5c-1.4-4.1-1.5-7.7-.3-10.8 1.3-3.3 3.9-5.7 7.9-7 3.9-1.3 7.4-1.1 10.5.8 2.7 1.8 4.8 4.7 6.2 8.7zm12.2 4.6l.2.6c1.6 4.6 4.7 8 9.4 10.2 4.7 2.2 9.5 2.5 14.2.9 2.6-.9 4.9-2.3 7-4.3s3.6-4.2 4.5-6.8c.8-2.1 1.2-4.1 1.3-5.9 0-1.9-.3-4.2-1-6.9l2.8-.8c.1.4.2.8.3 1 1.2 4.2 1.2 8.2 0 11.8-1.1 3.5-2.8 6.5-5.3 9.1s-5.3 4.4-8.6 5.5c-5.7 1.9-11.2 1.6-16.6-1s-9-6.8-10.9-12.5l2.7-.9zm66-31.2l-4.5 1.5c-.9-2.8-2.3-4.8-4-6.2-2.1-1.6-4.4-2-7-1.1-2.6.9-4.3 2.6-4.9 5.2-.5 2.2-.3 4.6.6 7.4l-4.5 1.5c-1.4-4.1-1.5-7.7-.3-10.8 1.3-3.3 3.9-5.7 7.9-7 3.9-1.3 7.4-1.1 10.5.8 2.8 1.8 4.9 4.7 6.2 8.7z"/>
</svg>