<svg viewBox="0 0 40 40" xmlns="http://www.w3.org/2000/svg">
  <path d="M2.63014 5.86207C3.83562 5.86207 4.93151 7.24138 4.93151 8.27586C4.93151 9.08046 4.38356 9.88506 3.72603 10.3448C5.15069 13.1034 7.0137 17.1264 9.53425 21.1494C9.75343 21.0345 9.97261 21.0345 10.1918 20.9195C10.0822 15.6322 9.97261 10.5747 9.97261 6.78161C8.87672 6.66667 8 5.51724 8 4.5977C8 3.21839 9.31507 1.95402 10.6301 1.95402C11.8356 1.95402 12.9315 3.33333 12.9315 4.36782C12.9315 5.17241 12.3836 5.97701 11.6164 6.43678C12.4932 10.1149 14.4658 15.7471 16.1096 19.6552C16.3288 19.6552 16.6575 19.6552 16.8767 19.5402C17.0959 14.5977 18.411 8.50575 18.8493 4.71264C18.0822 4.36782 17.4247 3.44828 17.4247 2.64368C17.4247 1.26437 18.7397 0 20.0548 0C21.2603 0 22.3562 1.37931 22.3562 2.41379C22.3562 3.44828 21.589 4.36782 20.7123 4.71264C21.1507 8.62069 22.4658 14.8276 22.7945 19.6552C23.0137 19.6552 23.3425 19.6552 23.5616 19.6552C25.3151 15.6322 27.1781 10.1149 28.0548 6.43678C27.3973 5.97701 26.9589 5.28736 26.9589 4.5977C26.9589 3.21839 28.274 1.95402 29.589 1.95402C30.7945 1.95402 31.8904 3.33333 31.8904 4.36782C31.8904 5.63218 30.7945 6.66667 29.6986 6.89655C29.6986 10.5747 29.589 15.7471 29.4795 21.0345C29.6986 21.0345 29.9178 21.1494 30.137 21.2644C32.6575 17.2414 34.5205 13.1034 35.9452 10.3448C35.3973 9.88506 35.0685 9.1954 35.0685 8.62069C35.0685 7.24138 36.3836 5.97701 37.6986 5.97701C38.9041 5.97701 40 7.35632 40 8.3908C40 9.77011 38.5753 10.9195 37.3699 10.9195H37.2603C35.9452 15.6322 35.0685 24.023 34.1918 27.5862C33.863 28.9655 31.6712 30.8046 31.6712 31.954C31.6712 33.4483 31.8904 35.2873 31.8904 36.6667C31.8904 38.7356 26.7397 40 19.8356 40C13.3699 40 7.78083 38.7356 7.78083 36.5517C7.78083 34.9425 8 33.2184 8 31.954C8 30.8046 5.91781 29.3103 5.58905 27.5862C4.82192 24.023 3.72603 15.6322 2.41096 10.9195H2.30138C1.0959 10.9195 0 9.77011 0 8.62069C0 7.24138 1.31507 5.86207 2.63014 5.86207ZM8.54795 29.5402C10.7397 28.2759 15.2329 27.2414 19.8356 27.2414C24.3288 27.2414 29.0411 28.2759 31.1233 29.4253L31.7808 28.3908C29.589 26.8965 24.9863 25.6322 19.8356 25.6322C14.5753 25.6322 10.1918 27.0115 7.89042 28.3908L8.54795 29.5402ZM9.42466 32.2988C11.1781 31.2644 15.6712 30.3448 19.726 30.3448C23.7808 30.3448 28.1644 31.2644 30.0274 32.2988V30.9195C27.9452 29.7701 24.5479 28.8506 19.726 28.8506C14.9041 28.8506 11.5069 29.7701 9.42466 30.9195L9.42466 32.2988ZM9.42466 35.4023C11.1781 34.3678 15.6712 33.5632 19.726 33.5632C23.7808 33.5632 28.1644 34.2529 30.0274 35.2873V33.908C27.9452 32.7586 24.5479 31.954 19.726 31.954C14.9041 31.954 11.5069 32.7586 9.42466 33.908V35.4023Z"/>
</svg>
