<svg viewBox="0 0 33 32" xmlns="http://www.w3.org/2000/svg">
<path d="M17.9592 0.827913C17.3884 -0.275971 15.6131 -0.275971 15.0422 0.827913L0.192933 29.5222C0.0592629 29.7793 -0.00700511 30.0676 0.000586034 30.3587C0.00817718 30.6499 0.0893686 30.9341 0.236249 31.1837C0.38313 31.4332 0.590691 31.6395 0.838707 31.7826C1.08672 31.9257 1.36674 32.0006 1.65146 32H31.35C31.6345 32.0006 31.9143 31.9258 32.1622 31.7828C32.41 31.6398 32.6174 31.4336 32.7642 31.1842C32.9109 30.9348 32.9919 30.6508 32.9994 30.3598C33.0069 30.0688 32.9406 29.7808 32.8068 29.5239L17.9592 0.827913ZM18.1506 26.9363H14.8508V23.5605H18.1506V26.9363ZM14.8508 20.1847V11.7452H18.1506L18.1523 20.1847H14.8508Z"/>
</svg>

