<svg xmlns="http://www.w3.org/2000/svg" xmlns:xlink="http://www.w3.org/1999/xlink" viewBox="0 0 136 158">
  <path d="M67.6.2L.1 39.4V118l67.5 39.3 67.5-39.3V39.4L67.6.2zm7.1 21.2v-8.9l7.6 4.4v8.9l-7.6-4.4zM60 13.5v8.7l7.5-4.4 7.5 4.4-7.5 4.4-7.5-4.4-7.5 4.4v8.7l7.5-4.4 7.5 4.4 7.5-4.4 7.5 4.4v-8.7L90 31v8.7l7.5 4.4v-8.7l7.5 4.4v8.7L97.4 44v8.7l7.5 4.4v8.7l-7.5-4.4-7.4 4.3v8.7l7.5-4.4 7.5 4.4-7.5 4.4v8.7L90 91.9v-8.7l7.5-4.4-7.5-4.4-7.5 4.4 7.5 4.4-7.5 4.4-7.5-4.5-7.5 4.4 7.5 4.4-7.5 4.4-7.5-4.4v8.7l-7.5-4.4v-8.7l7.5 4.4 7.5-4.4-7.5-4.4-7.5 4.4-7.5-4.4 7.5-4.4 7.5 4.4v-8.7l7.5 4.4 7.5-4.4v8.7l7.5-4.4V70l7.5-4.4-7.5-4.4-7.5 4.5V57l7.5-4.4v8.7L90 57l7.5 4.4v-8.7L90 48.3v-8.7l-7.5-4.4-7.5 4.4-7.5-4.4-7.5 4.4 7.5 4.4 7.5-4.4v8.7l7.5-4.4 7.5 4.4-7.5 4.4-7.5-4.4-7.5 4.4L75 57l-7.5 4.4L60 57v8.7l7.5 4.4-7.5 4.3-7.5-4.4 7.5-4.4-7.5-4.4v-8.7L60 57l7.5-4.4-7.5-4.3-7.5 4.4-7.5-4.4 7.5-4.4 7.5 4.4v-8.7l-7.5-4.4-7.5 4.4v8.7l-7.5 4.4v8.7L45 57l7.5 4.4-7.5 4.4-7.5-4.4-7.5 4.4v8.7l7.5-4.4 7.5 4.4-7.5 4.4-7.5-4.4-7.5 4.4v8.7l7.5-4.4 7.5 4.4L30 92l-7.5-4.4L15 92v8.7l7.5-4.4 7.5 4.4-7.5 4.4-7.5-4.4-7.5 4.4v-8.7L15 92v-8.7l7.5-4.4v-8.7L15 74.6v8.7l-7.5 4.4V79l7.5-4.4v-8.7l-7.5 4.4v-8.7l7.5-4.4v-8.7l7.5-4.4v-8.7L30 31v8.7l7.5-4.4v-8.7l7.5-4.4v8.7l-7.5 4.4V44l7.5-4.4v-8.7l7.5-4.4v-8.7l7.5-4.3zM89.8 31v-8.9l7.6 4.4v8.9L89.8 31zm15.1-.4l7.6 4.4v9l-7.6-4.4v-9zm15.1 8.6l7.6 4.4v8.8L120 48v8.8l7.6 4.4V70l-7.6-4.4v-8.8l-7.6-4.4v8.8l7.6 4.4v8.8l7.6 4.4v8.8L120 83v-8.8l-7.6-4.4v8.8L120 83v8.8l7.6 4.4v8.8l-7.6-4.4v-8.8l-7.6-4.4v-8.8l-7.6-4.4v-8.8l7.6 4.4V61l-7.6-4.4V48l7.6 4.4v-8.8L120 48v-8.8zM6.7 43.6l7.6-4.4v8.9l-7.6 4.4v-8.9zm68 22.3l7.6 4.3-7.6 4.3-7.6-4.3 7.6-4.3zm-30.2 8.9v-8.9l7.6 4.4v8.9l-7.6-4.4zM37 78.3l7.6 4.4v8.9L37 87.1v-8.8zm60.4 9L105 83l7.6 4.3-7.6 4.3-7.6-4.3zm-22.7 4l7.6-4.4v8.9l-7.6 4.4v-8.9zm30.4.3v8.7l7.5-4.4 7.5 4.4-7.5 4.4-7.5-4.4-7.5 4.4 7.5 4.4-7.5 4.4-7.5-4.4-7.5 4.4 7.5 4.4 7.5-4.4v8.7l-7.5 4.4 7.5 4.4-7.5 4.4-7.5-4.4-7.5 4.4v-8.7l-7.5 4.4-7.5-4.4v8.7l7.5 4.4-7.5 4.4-7.5-4.4 7.5-4.4-7.5-4.4v-8.7l-7.5-4.4 7.5-4.4-7.5-4.4v-8.7L37.6 96v8.7l7.5 4.4-7.5 4.4 7.5 4.4v8.7l-7.5-4.4-7.5 4.4-7.5-4.4 7.5-4.4-7.5-4.4v-8.7l7.5 4.4 7.5-4.4-7.5-4.4v-8.7l7.5 4.4 7.5-4.4 7.5 4.4-7.5 4.4 7.5 4.4 7.5-4.4 7.5 4.4-7.5 4.4 7.5 4.4 7.5-4.4-7.5-4.4 7.5-4.4 7.5 4.4-7.5 4.4v8.7l7.5-4.4v-8.7l7.5-4.4v8.7l7.5-4.4V96l7.5-4.4zm-15.3 0l7.6 4.3-7.6 4.3-7.6-4.3 7.6-4.3zm7.6 29.9l7.6-4.4v-8.8l7.6-4.4v8.8l-7.6 4.4 7.6 4.4-7.6 4.4-7.6-4.4zM7.7 114l7.6-4.3 7.6 4.3-7.6 4.3-7.6-4.3zm104.8 0l7.6-4.3 7.6 4.3-7.6 4.3-7.6-4.3zm-74.6 17.1l7.6-4.3 7.6 4.3-7.6 4.3-7.6-4.3zm29.3 8.6l7.6-4.3 7.6 4.3-7.6 4.3-7.6-4.3zM21.8 44.4V53l-7.6 4.3v8.6l7.6-4.3V53l7.6-4.3v-8.6l-7.6 4.3zm7.6 3.9v8.6l-7.6 4.3v8.6l7.6-4.3v-8.6l7.6-4.3V44l-7.6 4.3zM53 113.8l7.6 4.4v-8.9l-7.6-4.4v8.9zm-23.6 3.8L37 122v-8.9l-7.6-4.4v8.9zm22.7 4.9l7.6 4.3 7.6-4.3-7.6-4.3-7.6 4.3zm22.6-4.3l-7.6 4.3 7.6 4.3 7.6-4.3-7.6-4.3zm7.6 4.5v8.9l7.6-4.4v-8.9l-7.6 4.4z" />
</svg>
