<svg xmlns="http://www.w3.org/2000/svg" viewBox="0 0 1536.19065 192.23049" xmlns:xlink="http://www.w3.org/1999/xlink">
  <title>Artboard 1 copy 14</title>
  <path d="M687.678 65.523l-7.01-4.048v8.094l-7.01-4.046v-8.095l-7.01-4.048v8.095l-7.013-4.046v8.094l-7.01-4.048v-8.094l-7.012-4.048v8.094l-7.01-4.047-7.009 4.047-7.01-4.047-7.01 4.047v-8.094l7.012-4.046 7.009 4.045 7.01-4.046-7.01-4.048-7.01 4.048v-8.094h-.002l-7.01 4.046v8.095h.002l-7.011 4.048v8.094l-7.01 4.048v-8.095l7.009-4.048v-8.094l-7.01 4.046v8.096l-7.009 4.047V53.38l-7.012 4.048.002 8.095-7.01 4.046v-8.094l-7.011 4.048v8.093l7.01-4.047v8.095l-7.01 4.048v8.094l7.01-4.047v8.095l-7.01 4.047v8.094l7.01-4.047v-8.094l7.01-4.048v8.096l-7.01 4.047v8.094l-7.01 4.048v8.094l7.01-4.048 7.009 4.046 7.01-4.046-7.01-4.049-7.008 4.048v-8.093l7.01-4.047 7.009 4.045 7.01-4.046 7.01 4.048v-8.094l7.012 4.047v8.095l-7.011-4.048-7.01 4.047-7.01-4.047v8.094l7.01 4.048-7.01 4.048-7.01-4.048v8.094l7.01 4.047-7.01 4.048 7.01 4.048 7.01-4.048 7.01 4.048.001-8.095-7.012-4.047 7.01-4.047-7.01-4.048.001-8.094 7.01 4.046v8.094l7.01 4.048-7.009 4.048 7.01 4.047v8.095l-7.01-4.047-7.01 4.047 7.01 4.047 7.01-4.047 7.01 4.047-7.01 4.048 7.01 4.048 7.011-4.048-7.01-4.048v-8.094l7.01 4.047 7.01-4.047v8.094l7.01-4.047 7.01 4.047 7.01-4.047-7.01-4.047 7.01-4.048v-8.094l-7.009 4.047-7.01-4.047 7.01-4.047 7.011 4.046 7.01-4.047-7.01-4.048 7.01-4.047v-.002l7.01 4.048 7.01-4.048-7.01-4.048-7.01 4.048v-8.092l-7.012 4.048-7.01-4.048-7.01 4.048v-8.094l-7.01 4.046v8.094l7.01-4.046 7.01 4.046 7.01-4.046.002 8.092-7.01 4.05v-8.096l-7.011 4.048v8.095l-7.01 4.047v-8.094l7.01-4.048-7.01-4.048-7.01 4.048 7.01 4.048-7.01 4.048-7.011-4.048 7.009-4.048-7.01-4.048-7.01 4.048v-.002l-7.011-4.046 7.01-4.046 7.012 4.046v-8.094l7.009 4.048 7.01-4.048-7.009-4.047 7.011-4.047 7.01 4.046 7.009-4.047-7.008-4.047 7.01-4.047 7.007 4.048-7.01 4.047v8.094l7.011-4.048v-8.094l7.01-4.047-7.01-4.048-7.008 4.046V85.76l7.008-4.047 7.01 4.047.001-8.095-7.012-4.048v-8.093l7.01 4.048.002-8.096 7.01 4.048v8.093l-7.01-4.047v8.095l7.01 4.048v8.094l-7.01-4.047v8.095l7.01 4.048v8.093l-7.01-4.049-7.009 4.049 7.01 4.046 7.01-4.046v.002l7.01 4.047v8.093l7.01 4.047v-8.095l-7.01-4.047.001-8.093-7.012-4.047.001-8.095 7.01 4.047v8.092l7.01 4.049V97.9l-7.01-4.047.001-8.093-7.012-4.047v-8.096l7.011 4.048v8.093l7.01 4.049V81.71l-7.01-4.047.001-8.093 7.01 4.046zm0 64.757l-7.01-4.047-7.01 4.047 7.01 4.047zm-14.02 8.094l-7.01-4.048 7.01-4.047v-8.094l-7.01 4.048v8.093l-7.01 4.048 7.01 4.048zm-28.041 16.19l-7.01-4.048-7.01 4.048 7.01 4.048zm-56.085-24.285l-7.008-4.048-7.011 4.048 7.01 4.047zm49.074-84.993l7.01 4.047V41.24l-7.01-4.047zm14.02 8.094l7.01 4.048v-8.096l-7.01-4.046zm42.062 8.095v72.851l-63.094 36.428-63.096-36.428v-72.85L631.59 25.05zm-70.102 72.851v-8.093h-.001l-7.01-4.048v8.094zm21.029-44.52l-7.01-4.047-7.01 4.047-7.01-4.047-7.01 4.047 7.01 4.048 7.01-4.048 7.01 4.048zm.002-8.094l7.01 4.047-7.01 4.047v8.095l-7.01 4.046v-8.093l-7.01 4.048-7.011-4.048v8.095l7.009 4.046-7.01 4.047-7.01-4.045 7.01-4.048-7.01-4.047v-8.096l-7.01-4.047v8.095l7.01 4.048-7.011 4.047-7.01-4.048v8.094l-7.011-4.049-7.01 4.048v-8.092l7.011-4.048v-.002l7.01 4.047 7.009-4.047-7.01-4.046-7.009 4.045V85.76l7.01-4.047v-.003l7.009 4.049 7.01-4.049-7.01-4.046-7.01 4.046v-8.093l7.01-4.047v-8.094l7.012-4.047 7.01 4.047v8.094l-7.01-4.046-7.01 4.046 7.01 4.047 7.011-4.046 7.009 4.046-7.01 4.048-7.01-4.048v8.095l7.01 4.048v-8.094l7.01 4.047 7.01-4.048-7.008-4.047 7.01-4.047 7.008 4.046 7.01-4.047 7.01 4.048v8.093l-7.007-4.046-7.011 4.048v-8.096l-7.011 4.048v8.095l7.01-4.047zm-49.073 52.614l7.01 4.048v-8.094l-7.01-4.047zm0-56.661l7.01-4.049v-8.093l-7.01 4.046v8.095l-7.01 4.048v8.094l7.01-4.047zm35.053 60.71l7.009 4.047 7.01-4.048-7.008-4.047v.001zm-42.063-64.759l-7.01 4.048v8.095l7.01-4.047zm7.01-4.047v-8.094l-7.01 4.048v8.093zm49.073 68.805v8.095l7.009-4.047v-8.094zm-21.031-4.046v-.002l-7.011 4.048 7.01 4.048 7.01-4.047zm14.017-72.853l7.01-4.048v.002l7.012 4.046v8.094l-7.01-4.047-7.008 4.045v-8.092l-7.01 4.048-7.01-4.048 7.007-4.047z" id="f_Group_" data-name="Group" />
  <path d="M271.062 53.72h44.25v10.375h-34.5v28h32v10.375h-32v41h-9.75zm61.998 0h9.75v89.75h-9.75zm60.375 0c27.625 0 47.875 16.25 47.875 44.875 0 28.25-20.625 44.875-47.875 44.875H365.81V53.72zm3.875 10.375h-21.75v69h21.75c19.5 0 34.25-14 34.25-34.5 0-19.25-14-34.5-34.25-34.5zm60.749-10.375h47.375v10.375h-37.625v28h33.875v10.375h-33.875v30.625h37.625v10.375h-47.375z" />
  <path class="fcls-1" d="M122.377 34.12c-19.542 0-37.895 4.106-54.223 12.837 9.566 4.765 22.447 8.655 33.418 10.963a13.261 13.261 0 0 0 1.155-1.267c-.215-1.002-.68-2.58-.824-3.421 2.253-1.543 9.336-4.403 9.336-4.403l-.924-8.623 3.717-1.33 3.505 8.55c24.221-2.067 26.743 8.549 28.157 11.66 12.006-1.77 24.204-5.587 33.403-10.704-13.135-7.72-33.284-14.263-56.72-14.263zM45.548 65.158c6.366 2.025 19.206 5.705 40.984 9.01 1.85-2.816 10.598-11.342 12.713-13.813a158.545 158.545 0 0 1-35.013-11.146 72.536 72.536 0 0 0-18.684 15.949zm101.424 11.506c25.538-1.388 46.32-6.61 54.219-9.366-4.795-6.57-12.405-12.948-18.61-16.805-4.433 2.428-16.443 8.028-36 11.005 1.868 4.725.392 15.166.392 15.166zM34.24 93.728h65.67c4.698-8.137 15.326-13.36 15.326-13.36s-7.052-.42-11.201-.615c-3.188 2.558-9.923 9.12-16.895-2.182a263.97 263.97 0 0 1-43.807-9.508 46.08 46.08 0 0 0-9.093 25.665zm176.804 0c-.098-7.343-2.676-15.532-7.354-22.83-4.805 1.361-24.553 7.476-57.43 9.274-.768 4.557-2.387 9.618-2.73 13.556 2.939-.014 62.3 0 67.514 0zm-176.782 3.46c2.788-.033 63.589.015 63.589.015a28.47 28.47 0 0 0-2.313 11.924c-34.41 3.018-49.497 8.517-54.32 9.993a45.18 45.18 0 0 1-6.956-21.932zm108.922.015c2.435-.007 65.788-.007 67.837 0a45.472 45.472 0 0 1-7.738 22.896c-4.115-1.18-24.77-7.873-56.623-10.758a18.44 18.44 0 0 1-3.475-12.138zm-99.955 24.953c3.478-1.31 22.804-7.617 52.622-9.798a39.722 39.722 0 0 0 1.28 6.986s48.665-.027 50.272-.007c2.51-2.755 1.195-6.52 1.195-6.52a256.484 256.484 0 0 1 52.516 10.349 71.904 71.904 0 0 1-20.32 17.753c-6.674-2.568-24.159-10.455-47.5-12.34 2.534-3.582 11.848-4.417 14.121-4.753l.013-3.394-50.31-.012.012 3.421s10.808.13 13.416 4.491c-29.03 2.429-44.086 11.862-45.872 13.027-8.28-4.889-16.186-11.646-21.445-19.203z" />
  <path class="fcls-1" d="M176.711 143.235a106.895 106.895 0 0 1-26.506 9.757V138.71c-3.233.037-4.255.11-6.268.104-4.442-.016-7.133-.431-9.339-2.009a5.482 5.482 0 0 1-2.301-5.475 136.915 136.915 0 0 1 44.414 11.905zm-83.344 9.549a101.9 101.9 0 0 1-25.416-9.56c7.602-5.182 23.038-10.983 43.9-12.3.233.79.449 4.316-2.244 6.064-3.642 2.36-16.24 1.61-16.24 1.61z" />
  <path d="M99.516 142.729h9.324v2.834h-5.876v3.496h5.49v2.813h-5.49v6.149h-3.448zm15.403 0v15.291h-3.448v-15.29zm2.993.227a30.544 30.544 0 0 1 4.652-.341c2.927 0 4.832.543 6.286 1.635a6.761 6.761 0 0 1 2.586 5.76 7.827 7.827 0 0 1-2.519 6.197c-1.61 1.338-4.085 1.972-7.079 1.972a29.928 29.928 0 0 1-3.926-.225zm3.45 12.455a6.54 6.54 0 0 0 1.202.068c3.153.023 5.217-1.701 5.217-5.354 0-3.176-1.858-4.856-4.855-4.856a7.314 7.314 0 0 0-1.564.137zm21.438-3.856h-5.628v3.631h6.286v2.834h-9.734v-15.29h9.416v2.834h-5.968v3.178h5.628zm1057.554-16.863c-20.144 0-33.53-14.945-33.53-36.649s13.386-36.649 33.53-36.649c13.516 0 24.563 9.617 27.292 20.664l.26 3.198h8.187V52.557h-8.187l-.39 13.256c-4.679-7.927-14.426-14.555-27.682-14.555-23.653 0-42.757 18.194-42.757 46.785s19.624 46.786 43.277 46.786c21.444 0 36-13.256 38.208-32.88h-8.707c-3.119 14.426-13.906 22.743-29.5 22.743zm115.405-25.732c0-19.494-12.086-28.331-25.732-28.331-8.318 0-15.726 4.158-18.325 9.487V52.557h-18.844v7.278l9.617.13v76.157l-9.617.13v7.277h28.461v-7.277l-9.617-.13v-32.23c1.56-7.538 9.227-13.386 18.065-13.386 10.397 0 16.765 7.407 16.765 19.104v26.512l-9.617.13v7.277h28.46v-7.277l-9.616-.13zm49.515-28.331c-17.935 0-29.371 14.165-29.371 32.1 0 18.324 11.696 32.1 30.02 32.1 16.246 0 25.733-9.617 27.552-20.144h-9.097c-2.6 6.498-9.357 10.787-18.844 10.787-11.567 0-19.104-7.538-20.534-19.624h49.125a20.892 20.892 0 0 0 .52-4.549c0-16.505-11.047-30.67-29.371-30.67zm-19.754 26.381c1.3-9.357 8.577-17.024 19.754-17.024s18.454 7.667 19.754 17.025zm84.734-1.43c-4.289-1.819-7.928-4.548-7.928-8.576 0-4.679 4.289-7.538 10.137-7.538 4.419 0 8.837 2.21 10.527 4.938l.26 8.968h7.018V80.629h-7.018l-.26 5.068c-1.3-2.21-5.588-5.068-12.086-5.068-10.397 0-17.675 7.017-17.675 15.985 0 8.447 5.069 13.386 13.906 17.154l7.927 3.51c7.018 2.988 9.617 6.627 9.617 10.786 0 5.718-5.198 7.928-10.916 7.928-7.148 0-13.126-3.64-14.556-8.578l-.26-8.187h-7.018v24.302h7.018l.26-4.808c2.34 3.249 7.538 6.108 15.336 6.108 10.396 0 19.234-6.628 19.234-17.025 0-8.967-6.238-14.685-15.596-18.714zM872.623 59.836v-7.278h-30.93v7.278l11.306.13-18.714 74.987-18.325-75.117 10.917-.13v-7.148h-41.068v7.148l10.917.13-18.324 75.117-18.715-74.987 11.307-.13v-7.278h-30.93v7.278l10.136.13 20.924 83.564h14.555l20.664-83.304 20.664 83.304h14.555l20.924-83.564zm146.855-7.278h-18.844v7.278l9.617.13v76.157l-9.617.13v7.277h28.461v-7.277l-9.617-.13zm81.875 0h-18.844v7.278l9.617.13v31.71c-3.769-6.108-12.996-11.046-21.963-11.046-16.765 0-30.541 13.515-30.541 32.1s13.776 32.1 30.54 32.1a26.827 26.827 0 0 0 22.744-12.346l.39 11.046h17.674v-7.277l-9.617-.13zM977.241 80.63a16.41 16.41 0 0 0-15.465 11.176v-9.877H943.71v7.408h9.617v46.786l-9.617.13v7.277h32.62v-7.277l-13.776-.13v-31.19c1.69-9.618 8.188-14.946 13.646-14.946a10.358 10.358 0 0 1 6.498 1.95l.39 12.735h7.668l.39-18.324c-2.73-3.25-8.058-5.718-13.906-5.718zm-76.157 0c-16.765 0-31.19 13.515-31.19 32.1s14.425 32.1 31.19 32.1 31.19-13.516 31.19-32.1-14.425-32.1-31.19-32.1zm0 54.323c-12.606 0-21.833-9.227-21.833-22.223s9.227-22.223 21.833-22.223 21.834 9.227 21.834 22.223-9.228 22.223-21.834 22.223zm169.598-44.446c12.607 0 21.704 9.227 21.704 22.223s-9.097 22.223-21.704 22.223-21.703-9.227-21.703-22.223 9.097-22.223 21.703-22.223zm416.754 15.075c-4.288-1.82-7.927-4.549-7.927-8.577 0-4.68 4.289-7.538 10.137-7.538 4.418 0 8.837 2.21 10.527 4.938l.26 8.968h7.017V80.629h-7.017l-.26 5.068c-1.3-2.21-5.589-5.068-12.087-5.068-10.397 0-17.674 7.017-17.674 15.985 0 8.447 5.068 13.386 13.905 17.154l7.928 3.51c7.018 2.988 9.617 6.627 9.617 10.786 0 5.718-5.198 7.928-10.917 7.928-7.147 0-13.126-3.64-14.555-8.578l-.26-8.187h-7.018v24.302h7.018l.26-4.808c2.34 3.249 7.537 6.108 15.335 6.108 10.397 0 19.234-6.628 19.234-17.025 0-8.967-6.238-14.685-15.595-18.714z" />
</svg>
