<svg width="100%" height="100%" viewBox="0 0 247.1 305" fill="none" xmlns="http://www.w3.org/2000/svg">
	<style>.st0{fill:#ffc1a8}.dst1{fill:#fff}.st2{fill:#00c24f}.st3{fill:#f64747}.st4{fill:#a58aff}.st5{clip-path:url(#SVGID_2_)}.st6{clip-path:url(#SVGID_4_);fill:#737373}.st7{clip-path:url(#SVGID_6_)}.st8{clip-path:url(#SVGID_8_);fill:#1dbf55}.st9{clip-path:url(#SVGID_10_)}.st10{clip-path:url(#SVGID_12_);fill:#f2494c}.st11{clip-path:url(#SVGID_14_)}.st12{clip-path:url(#SVGID_16_);fill:#a48cfb}</style>
    <path d="M145.6 84.6l-.7-.2c2.2 0 3.9-1.8 3.9-3.9 0-2.2-1.8-3.9-3.9-3.9h-.2l4.1-7.6-3.5-3.6c6.2-4.7 10.3-12.5 10.6-21.4v-8.5c0-2.6-1.9-4.6-4.2-4.6-2.3 0-4.2 2.1-4.2 4.6v5c0 1.4-1 2.5-2.2 2.5-1.2 0-2.2-1.1-2.2-2.5v-5c0-2.6-1.9-4.6-4.2-4.6s-4.2 2.1-4.2 4.6v5c0 1.4-1 2.5-2.2 2.5-1.2 0-2.2-1.1-2.2-2.5v-5c0-1.9-1-3.5-2.5-4.2 2.3-.6 4-2.7 4-5.1 0-2.9-2.4-5.3-5.3-5.3s-5.3 2.4-5.3 5.3c0 2.3 1.5 4.3 3.6 5-1.6.6-2.8 2.4-2.8 4.4v5c0 1.4-1 2.5-2.2 2.5-1.2 0-2.2-1.1-2.2-2.5v-5c0-2.6-1.9-4.6-4.2-4.6-2.3 0-4.2 2.1-4.2 4.6v5c0 1.4-1 2.5-2.2 2.5-1.2 0-2.2-1.1-2.2-2.5v-5c0-2.6-1.9-4.6-4.2-4.6-2.3 0-4.2 2.1-4.2 4.6V44c.3 8.9 4.4 16.7 10.6 21.4l-3.5 3.6 4.1 7.6h-.2c-2.2 0-3.9 1.8-3.9 3.9 0 .4.1.9.2 1.2-25.3 5.6-47.1 24.2-55.2 50.6l-.5 1.5c-12 39 10 80.7 49 92.7l4.4 1.3c1.9.6 3.9 1.1 5.9 1.5h-.2c-2.3 0-4.1 1.8-4.1 4.1 0 2 1.4 3.6 3.2 4l-11.6 7.7 7.7 14.2h.8c-2.1 0-3.8 1.7-3.8 3.8v.2c0 1.4.7 2.6 1.8 3.3h-1.8c-2.1 0-3.8 1.7-3.8 3.8v.2c0 2.1 1.7 3.8 3.8 3.8H153c2.1 0 3.8-1.7 3.8-3.8v-.2c0-2.1-1.7-3.8-3.8-3.8h-1.8c1.1-.7 1.8-1.9 1.8-3.3v-.2c0-2.1-1.7-3.8-3.8-3.8h.8l7.7-14.2-11.8-7.8c1.6-.5 2.8-2.1 2.8-3.9 0-2.3-1.8-4.1-4.1-4.1H139c25.3-5.6 47-24.2 55.1-50.5l.5-1.5c12.1-38.9-10-80.7-49-92.7z"/>
    <path class="dst1" d="M87.8 156.9l-.9 3.4-28.2-8.3 1-3.3 28.1 8.2zm2.3-7.4l-1 3.5-28.2-8.2 1-3.5 28.2 8.2zm-1.8-14.1l-21-12.5 1-3.5 26.1 15.5-1.2 4.3-30.4-.8 1.1-3.6 24.4.6zm17.3 9.3l-.2.6c-1.4 4.7-.7 9.3 1.9 13.8 2.6 4.5 6.3 7.5 11.1 8.9 2.7.8 5.4.9 8.2.5 2.8-.4 5.3-1.4 7.6-2.9 1.9-1.2 3.3-2.6 4.4-4.1 1.1-1.5 2.1-3.6 3.1-6.3l2.7.9c-.2.4-.3.8-.4 1-1.5 4.1-3.8 7.4-6.8 9.7-2.9 2.2-6.1 3.7-9.5 4.4-3.5.7-6.9.6-10.2-.4-5.8-1.7-10.1-5.1-13-10.4-2.9-5.2-3.5-10.7-1.8-16.5l2.9.8zm71.9 38.5l-1 3.3-28.2-8.2 1-3.3 28.2 8.2zm2.1-7.3l-1 3.5-28.2-8.2 1-3.5 28.2 8.2zm1.9-6.5l-1 3.6-26.1-15.6 1.3-4.3 30.3.9-1.1 3.5-24.5-.8 21.1 12.7z"/>
</svg>