<svg width="34" height="20" viewBox="0 0 34 20" fill="none" xmlns="http://www.w3.org/2000/svg">
<path opacity="0.2" fill-rule="evenodd" clip-rule="evenodd" d="M15.8031 0H7.53368L6 6.55406L7.54888 7.59452V9.94174L13.2371 13.8761C12.6693 14.3523 12.3144 15.0667 12.3144 15.8639C12.3144 16.2677 12.3955 16.6508 12.5679 17.0028L12.5476 16.9925H0V19.9743L10.2155 19.7879C10.2155 19.7879 14.4639 18.8354 15.8936 18.3281C16.7351 18.0382 17.1001 17.2617 17.2522 16.6611L20 18.5558V18.9756H27.1923L29.0423 16.0198H29.9881L34 9.98713H32.8255L29.7075 14.7689L29.7283 9.98713H28.7721V14.6982L26.6622 18.0676H20V15.9585L20.0311 15.9794L24.2694 9.76866H34V8.83237L15.8031 0ZM8.46142 8.20751L19.0875 15.3455V16.7854L8.46142 9.44477V8.20751ZM23.7824 8.83237L23.5026 9.2381L19.7824 14.679L7.057 6.13793L8.26943 0.936294H15.5648L32.114 8.83237H24.2694H23.7824ZM26.4789 15.9794H22L23.662 10.9858H28L26.4789 15.9794ZM23.1643 15.1456H25.8498L26.8638 11.8197H24.2723L23.1643 15.1456ZM13.7035 17.0235C13.4094 16.7336 13.2269 16.3195 13.2269 15.8639C13.2269 15.2531 13.5615 14.7147 14.0381 14.4352L16.431 16.0814C16.3296 16.8889 15.6604 17.5101 14.8391 17.5101C14.3929 17.5101 13.9975 17.3134 13.7035 17.0235ZM10.393 18.7792C10.2676 18.808 10.1692 18.8305 10.104 18.8457L0.963239 19.0114L1.01394 17.9243H12.4259L13.1154 18.1313C12.0395 18.4018 10.95 18.6515 10.393 18.7792Z" fill="white"/>
</svg>
