<svg width="156" height="156" viewBox="0 0 156 156" xmlns="http://www.w3.org/2000/svg">
<path d="M78 0L84.116 15.9031L93.217 1.49875L96.113 18.2895L107.849 5.93739L107.414 22.9704L121.334 13.1454L117.584 29.7662L133.154 22.8457L126.234 38.4155L142.855 34.6655L133.03 48.5861L150.063 48.1507L137.711 59.887L154.501 62.783L140.097 71.884L156 78L140.097 84.116L154.501 93.217L137.711 96.113L150.063 107.849L133.03 107.414L142.855 121.334L126.234 117.584L133.154 133.154L117.584 126.234L121.334 142.855L107.414 133.03L107.849 150.063L96.113 137.711L93.217 154.501L84.116 140.097L78 156L71.884 140.097L62.783 154.501L59.887 137.711L48.1507 150.063L48.5861 133.03L34.6655 142.855L38.4155 126.234L22.8457 133.154L29.7662 117.584L13.1454 121.334L22.9704 107.414L5.93739 107.849L18.2895 96.113L1.49875 93.217L15.9031 84.116L0 78L15.9031 71.884L1.49875 62.783L18.2895 59.887L5.93739 48.1507L22.9704 48.5861L13.1454 34.6655L29.7662 38.4155L22.8457 22.8457L38.4155 29.7662L34.6655 13.1454L48.5861 22.9704L48.1507 5.93739L59.887 18.2895L62.783 1.49875L71.884 15.9031L78 0Z"/>
</svg>
