<svg width="100%" height="100%" viewBox="0 0 247.1 305" fill="none" xmlns="http://www.w3.org/2000/svg">
	<style>.st0{fill:#ffc1a8}.ist1{fill:#fff}.st2{fill:#00c24f}.st3{fill:#f64747}.st4{fill:#a58aff}.st5{clip-path:url(#SVGID_2_)}.st6{clip-path:url(#SVGID_4_);fill:#737373}.st7{clip-path:url(#SVGID_6_)}.st8{clip-path:url(#SVGID_8_);fill:#1dbf55}.st9{clip-path:url(#SVGID_10_)}.st10{clip-path:url(#SVGID_12_);fill:#f2494c}.st11{clip-path:url(#SVGID_14_)}.st12{clip-path:url(#SVGID_16_);fill:#a48cfb}</style>
    <path class="ist1" d="M201.2 157.8c0-35.6-25-65.6-59-74.4.6-.7 1-1.6 1-2.6 0-1.7-1-3.1-2.5-3.6 1.5-.6 2.5-2 2.5-3.6 0-1.8-1.3-3.4-3-3.8 7.2-1.2 11.8-3 11.8-4.9 0-2.6-8.9-4.8-21.1-5.4 5.8-2.8 9.5-8.4 9.5-15.7 0-4.7-2.8-8.4-7.3-9-5.1-.6-15 4.4-15.2 4.5.2-.1 16.9-10.5 10.7-18-1.1-1.4-4.6-3.9-6.8-5.4 2.1-.7 3.7-2.7 3.7-5.1 0-2.9-2.4-5.3-5.3-5.3s-5.3 2.4-5.3 5.3c0 2.4 1.6 4.4 3.8 5.1-4.5 3.9-17.9 16.3-17.7 27.1.1 8.6 4.1 14.1 10 16.7-12.2 1-21 3.4-20.9 6 0 1.8 4.2 3.4 10.7 4.4-1.1.7-1.9 1.9-1.9 3.4 0 1.7 1 3.1 2.5 3.6-1.5.6-2.5 2-2.5 3.6 0 1.1.5 2.1 1.2 2.8-33.5 9.1-58.2 38.8-58.2 74.2 0 34.7 23.7 64.1 56.4 73.7-1 .7-1.7 1.9-1.7 3.2 0 1.7 1.1 3.2 2.7 3.7-1.6.5-2.7 2-2.7 3.7 0 2.2 1.8 3.9 3.9 3.9h1.4l-.7 2.1c-.7 1.8-2.3 3.1-4.2 3.3-.6.1-1.1.2-1.7.4-3.4 1.1-5.9 4.3-5.9 8.1 0 4.7 3.8 8.5 8.5 8.5h.1c-.9.7-1.4 1.8-1.4 3 0 2 1.4 3.6 3.3 3.9h42.5c1.9-.3 3.3-1.9 3.3-3.9 0-1.2-.5-2.3-1.4-3h.1c4.7 0 8.5-3.8 8.5-8.5 0-3.8-2.4-7-5.8-8.1-.6-.2-1.2-.4-1.8-.5-1.9-.2-3.6-1.5-4.2-3.3l-.7-2.1h1.4c2.2 0 3.9-1.8 3.9-3.9 0-1.7-1.1-3.2-2.7-3.7 1.6-.5 2.7-2 2.7-3.7 0-1.2-.6-2.3-1.4-3 32.8-9.2 56.9-38.7 56.9-73.7z"/>
    <path d="M79.6 161.7v12.5h-4v-8.5h-25v-4h29zm53.7 17.1c-1.6 2.1-3.1 3.8-4.6 4.9-1.5 1.2-3.3 2.2-5.6 3.1-3.5 1.4-7.5 2.1-11.8 2.1-4 0-7.8-.6-11.3-1.9-2.4-.8-4.3-1.8-5.9-3-1.6-1.2-3.2-3-5-5.3h1.5c2.1 2 3.9 3.4 5.2 4.2 1.3.8 3 1.4 5.1 1.9 3.7.9 7.2 1.4 10.6 1.4 8.7 0 15.4-2.5 20.3-7.4h1.5zm38-17.1v12.5h-4v-8.5h-25v-4h29z"/>
</svg>