<svg width="93" height="16" viewBox="0 0 93 16" xmlns="http://www.w3.org/2000/svg">
<path d="M3.85304 15.4827C7.92281 15.4827 9.753 13.4412 9.753 10.8662C9.753 8.54635 7.75424 7.36322 6.38159 7.36322V7.27043C7.65791 7.20083 9.07872 5.73932 9.07872 3.95303C9.07872 0.983615 6.69465 0.171666 3.66039 0.171666H0C0.0481629 1.2388 0.096326 2.63071 0.120407 4.20821V15.4827H3.85304ZM2.96202 1.40119C5.8518 1.40119 7.46526 2.12034 7.46526 4.02263C7.46526 5.92491 5.63507 6.78326 3.22692 6.78326H1.58938V1.40119H2.96202ZM1.58938 9.96146V8.03598H3.46773C6.35751 8.03598 8.11546 8.80153 8.11546 10.9126C8.11546 12.9541 6.7669 14.1604 3.73263 14.1604H1.66162C1.61346 12.9309 1.58938 11.4926 1.58938 9.96146Z" />
<path d="M24.8004 4.74178C24.8004 3.21068 24.8245 1.40119 24.8486 0.171666H23.1629C23.2592 1.2388 23.3074 2.63071 23.3315 4.20821V8.63914C23.3315 12.9309 21.5976 14.3692 18.6597 14.3692C15.4087 14.3692 14.2287 12.6525 14.2287 8.43036V4.74178C14.2287 3.21068 14.2528 1.40119 14.2768 0.171666H12.5911C12.6875 1.2388 12.7356 2.63071 12.7597 4.20821V8.96392C12.7597 13.3253 14.4454 15.8075 18.5152 15.8075C23.4037 15.8075 24.8004 12.5597 24.8004 8.80153V4.74178Z" />
<path d="M28.9615 4.20821V15.4827H30.5509C30.4787 14.0212 30.4305 12.0725 30.4305 9.96146V8.84793H31.6346C31.8995 8.84793 32.1644 8.84793 32.4052 8.82473C32.4534 8.87113 32.4774 8.91753 32.5256 8.96392L37.7995 15.4827H40.0631L34.5966 9.2655C34.3799 9.03352 34.1632 8.82473 33.9223 8.66234C36.7399 8.17517 38.2088 6.69046 38.2088 4.27781C38.2088 1.40119 35.5599 0.171666 32.4774 0.171666H28.8411C28.8893 1.2388 28.9375 2.63071 28.9615 4.20821ZM31.7791 1.42439C35.1505 1.42439 36.5713 2.39873 36.5713 4.32421C36.5713 6.73686 34.5485 7.52561 32.0681 7.52561H30.4305V1.42439H31.7791Z" />
<path d="M52.0485 15.4827V13.9748C50.1461 14.1604 46.7506 14.2068 44.2702 14.1372C44.222 12.9077 44.198 11.4694 44.198 9.96146V8.12878C46.1726 8.10558 48.1473 8.10558 50.2906 8.17517V6.87605H44.198V1.42439C46.5098 1.37799 49.3273 1.35479 51.9281 1.47079V0.171666H42.6086C42.6567 1.2388 42.7049 2.63071 42.729 4.20821V15.4827H52.0485Z" />
<path d="M66.5916 15.4827C65.0985 11.655 60.8602 1.2388 60.6434 0.171666H59.1263C58.4279 2.30593 54.8398 11.6782 53.1782 15.4827H54.9361C55.2974 14.3692 56.0439 12.3045 56.8627 10.0775C58.4761 10.0775 61.4381 10.0079 62.8589 10.0775C63.6296 12.1653 64.352 14.1604 64.8095 15.4827H66.5916ZM59.7765 2.32913H59.9692C60.5471 3.86024 61.4381 6.24969 62.3532 8.66234H57.3924C58.3075 6.24969 59.2226 3.81384 59.7765 2.32913Z" />
<path d="M80.8793 4.74178C80.8793 3.21068 80.9034 1.40119 80.9275 0.171666H79.2418C79.3381 1.2388 79.3863 2.63071 79.4103 4.20821V8.63914C79.4103 12.9309 77.6765 14.3692 74.7385 14.3692C71.4875 14.3692 70.3075 12.6525 70.3075 8.43036V4.74178C70.3075 3.21068 70.3316 1.40119 70.3557 0.171666H68.67C68.7663 1.2388 68.8145 2.63071 68.8386 4.20821V8.96392C68.8386 13.3253 70.5243 15.8075 74.594 15.8075C79.4826 15.8075 80.8793 12.5597 80.8793 8.80153V4.74178Z" />
<path d="M84.9382 16C86.1664 14.6545 87.5094 13.394 89.2192 11.6773L93 7.96551L89.2192 4.23054C87.5094 2.53704 86.1664 1.39191 84.9382 0L83.6378 1.11353C84.9382 2.27346 86.2572 3.32579 88.0633 5.08888L91.0012 7.98871L88.0151 10.9349C86.2331 12.698 84.9382 13.7961 83.6378 14.9793L84.9382 16Z" />
</svg>
