<svg viewBox="0 0 13 16" fill="none" 
	xmlns="http://www.w3.org/2000/svg">
	<path fill-rule="evenodd" clip-rule="evenodd" d="M9.75134 4.74759H8.47845V4.2168L9.26837 3.98397V2.81367L7.83503 2.58261L8.01066 1.28027H5.83871L6.01433 2.58261L4.57936 2.81367V4.03018L5.36968 4.26345V4.74759H3.82843C2.1653 4.74759 1.26172 5.64589 1.26172 6.99312C1.26172 7.71272 1.58097 8.40857 2.03932 9.0067C2.84934 10.0652 3.57483 10.3548 3.57483 11.8983L2.33641 14.0026C2.33641 15.0034 11.4288 14.9836 11.4288 14.0026L10.2429 12.007C10.2429 10.3654 10.9672 10.0714 11.7817 9.0067C12.2393 8.40857 12.5597 7.71272 12.5597 6.99312C12.5597 5.64589 11.4145 4.74759 9.75134 4.74759" fill="black"/>
	<path fill-rule="evenodd" clip-rule="evenodd" d="M9.75134 4.74759H8.47845V4.2168L9.26837 3.98397V2.81367L7.83503 2.58261L8.01066 1.28027H5.83871L6.01433 2.58261L4.57936 2.81367V4.03018L5.36968 4.26345V4.74759H3.82843C2.1653 4.74759 1.26172 5.64589 1.26172 6.99312C1.26172 7.71272 1.58097 8.40857 2.03932 9.0067C2.84934 10.0652 3.57483 10.3548 3.57483 11.8983L2.33641 14.0026C2.33641 15.0034 11.4288 14.9836 11.4288 14.0026L10.2429 12.007C10.2429 10.3654 10.9672 10.0714 11.7817 9.0067C12.2393 8.40857 12.5597 7.71272 12.5597 6.99312C12.5597 5.64589 11.4145 4.74759 9.75134 4.74759Z" stroke="#8D73FF" stroke-width="0.599529"/>
	<path d="M3.42969 11.9702C4.24217 11.615 5.47115 11.4297 6.89505 11.4297C8.24385 11.4297 9.45232 11.6348 10.2669 11.9583" stroke="#8D73FF" stroke-width="0.599529"/>
	<path d="M4.60742 4.73666H9.26155" stroke="#8D73FF" stroke-width="0.599529"/>
	<path fill-rule="evenodd" clip-rule="evenodd" d="M6.45508 7.40258C6.45508 8.0949 6.66517 8.71327 6.99468 9.14944C7.32501 8.71327 7.53511 8.0949 7.53511 7.40258C7.53511 6.71026 7.32501 6.09144 6.99468 5.65527C6.66517 6.09144 6.45508 6.71026 6.45508 7.40258Z" stroke="#8D73FF" stroke-width="0.599529"/>
	<path fill-rule="evenodd" clip-rule="evenodd" d="M9.44141 7.40258C9.44141 8.0949 9.6515 8.71327 9.98101 9.14944C10.3113 8.71327 10.5214 8.0949 10.5214 7.40258C10.5214 6.71026 10.3113 6.09144 9.98101 5.65527C9.6515 6.09144 9.44141 6.71026 9.44141 7.40258Z" stroke="#8D73FF" stroke-width="0.599529"/>
	<path fill-rule="evenodd" clip-rule="evenodd" d="M3.39258 7.40258C3.39258 8.0949 3.60267 8.71327 3.93259 9.14944C4.26251 8.71327 4.47261 8.0949 4.47261 7.40258C4.47261 6.71026 4.26251 6.09144 3.93259 5.65527C3.60267 6.09144 3.39258 6.71026 3.39258 7.40258Z" stroke="#8D73FF" stroke-width="0.599529"/>
	<path fill-rule="evenodd" clip-rule="evenodd" d="M11.3858 14.2387C10.76 15.0811 9.15555 15.6093 6.75873 15.6093C4.36108 15.6093 3.00695 15.0257 2.13086 14.2387C2.75705 13.3959 4.36108 12.8682 6.75832 12.8682C9.15555 12.8682 10.5097 13.4518 11.3858 14.2387" fill="black"/>
	<path fill-rule="evenodd" clip-rule="evenodd" d="M11.3858 14.2387C10.76 15.0811 9.15555 15.6093 6.75873 15.6093C4.36108 15.6093 3.00695 15.0257 2.13086 14.2387C2.75705 13.3959 4.36108 12.8682 6.75832 12.8682C9.15555 12.8682 10.5097 13.4518 11.3858 14.2387Z" stroke="#8D73FF" stroke-width="0.599529" stroke-linejoin="bevel"/>
</svg>
