<svg class="logo" viewBox="0 0 253 81" xmlns="http://www.w3.org/2000/svg">
<path d="M152.109 80.7971L152.176 71.1285H143.987L140.026 80.7971H133.313L148.753 43.6777H158.486V80.7971H152.109ZM146.135 65.7195H152.243L152.377 50.5066L146.135 65.7195Z"/>
<path d="M175.603 80.7971L173.791 64.9081H169.293L166.004 80.7971H159.358L167.011 43.6777H177.952C181.309 43.6777 183.725 44.2186 185.336 45.2328C186.88 46.247 187.686 47.8021 187.686 49.8305C187.686 50.0333 187.686 50.3038 187.686 50.5742C187.686 50.8447 187.619 51.2504 187.552 51.8589C187.484 52.3998 187.35 53.2111 187.149 54.2253C186.947 55.2395 186.679 56.5918 186.343 58.2145C186.008 60.1076 185.269 61.5275 184.195 62.5417C183.121 63.5559 181.712 64.232 180.033 64.6377L182.181 80.9323H175.603V80.7971ZM177.55 48.9515H172.649L170.367 59.9724H175.2C176.61 59.9724 177.684 59.7696 178.355 59.4315C179.026 59.0934 179.496 58.2145 179.832 56.7946C180.1 55.5776 180.302 54.5634 180.436 53.8196C180.57 53.0759 180.705 52.535 180.772 52.1293C180.839 51.7236 180.906 51.4532 180.906 51.318C180.906 51.1827 180.906 51.0475 180.906 50.9799C180.906 50.3038 180.637 49.7629 180.1 49.4248C179.631 49.1544 178.758 48.9515 177.55 48.9515Z"/>
<path d="M202.856 75.3205L201.715 80.7971H182.853L190.572 43.6777H209.435L208.293 49.0868H196.076L194.13 58.6201H205.877L204.803 63.8939H192.989L190.572 75.3205H202.856Z"/>
<path d="M220.443 80.7971L214.469 55.6452L209.3 80.7971H203.058L210.71 43.6777H217.624L223.397 68.2888L228.499 43.6777H234.674L227.022 80.7971H220.443Z"/>
<path d="M246.623 80.7971L246.69 71.1285H238.5L234.54 80.7971H227.827L243.266 43.6777H253V80.7971H246.623ZM240.648 65.7195H246.757L246.891 50.5066L240.648 65.7195Z"/>
<path d="M28.3943 24.4758H16.6471L13.2237 40.7705H6.57812L14.2306 3.65112H33.1602L32.0191 9.26298H19.8021L17.7211 19.0668H29.5354L28.3943 24.4758Z"/>
<path d="M26.7168 40.7705L34.3692 3.65112H41.0819L33.3623 40.7705H26.7168Z"/>
<path d="M52.9625 3.65112C57.1244 3.65112 60.1451 4.39486 62.0246 5.81473C63.9042 7.2346 64.9111 9.26298 64.9111 11.8323C64.9111 12.1027 64.9111 12.4408 64.8439 12.8464C64.7768 13.2521 64.6426 14.0635 64.4412 15.2805C64.2398 16.4975 63.9042 18.2555 63.4343 20.6219C62.9644 22.9883 62.2931 26.1661 61.4205 30.2229C60.615 34.0092 59.1382 36.7137 56.8559 38.3364C54.6407 39.9591 51.1501 40.7705 46.3841 40.7705H34.7041L42.3565 3.65112H52.9625ZM55.0435 28.9383C55.7818 25.3548 56.386 22.5151 56.7887 20.4867C57.1915 18.3907 57.5271 16.8356 57.7285 15.8214C57.9299 14.8072 58.0641 14.0635 58.0641 13.7254C58.1313 13.3873 58.1313 13.1169 58.1313 12.9141C58.1313 11.4942 57.6614 10.48 56.7216 9.87149C55.7818 9.26298 54.3722 8.99253 52.4255 8.99253H47.928L42.3565 35.4291H47.4581C49.6733 35.4291 51.3515 35.0234 52.4926 34.1444C53.6338 33.3331 54.4393 31.5752 55.0435 28.9383Z"/>
<path d="M80.5516 35.2939L79.4104 40.7705H60.5479L68.2003 3.65112H87.13L85.9888 9.12775H73.7718L71.758 18.5935H83.5723L82.4982 23.9349H70.6168L68.2674 35.2939H80.5516Z"/>
<path d="M11.68 81C7.85381 81 4.90024 80.2562 2.95357 78.8364C1.0069 77.3489 0 75.3881 0 72.7512C0 72.4808 0 72.2103 0.0671266 71.8047C0.134253 71.399 0.268506 70.5876 0.469886 69.3706C0.671266 68.1536 1.0069 66.3956 1.47678 64.0292C1.94667 61.6628 2.61794 58.485 3.49058 54.3606C4.2961 50.5067 5.84001 47.7345 8.12231 45.9766C10.4046 44.2187 13.7609 43.3397 18.1242 43.3397C21.9504 43.3397 24.904 44.0835 26.8506 45.5033C28.7973 46.9232 29.8042 48.9516 29.8042 51.5885C29.8042 51.8589 29.8042 52.1294 29.7371 52.535C29.6699 52.9407 29.5357 53.7521 29.3343 54.9691C29.1329 56.1861 28.7973 57.9441 28.3274 60.3105C27.8575 62.6769 27.1863 65.8547 26.3136 69.9791C25.5081 73.833 23.9642 76.6052 21.6819 78.3631C19.4667 80.121 16.1104 81 11.68 81ZM12.6198 75.6586C14.7007 75.6586 16.2446 75.1853 17.3858 74.2387C18.5269 73.2921 19.3324 71.6018 19.8695 69.0325C20.675 65.3138 21.2791 62.4065 21.6819 60.3105C22.0846 58.2145 22.4203 56.5918 22.6217 55.51C22.823 54.4282 22.9573 53.7521 23.0244 53.414C23.0915 53.0759 23.0915 52.8055 23.0915 52.6703C23.0915 51.318 22.6217 50.3038 21.6819 49.7629C20.7421 49.1544 19.2653 48.884 17.2515 48.884C15.1706 48.884 13.6267 49.3573 12.4855 50.3038C11.3444 51.2504 10.5389 52.9407 10.0019 55.51C9.19634 59.2287 8.5922 62.136 8.18944 64.232C7.78668 66.328 7.45105 67.9507 7.24967 69.0325C7.04829 70.1143 6.91404 70.7905 6.84691 71.1285C6.77978 71.4666 6.77978 71.7371 6.77978 71.9399C6.77978 73.2921 7.24967 74.2387 8.18944 74.8472C9.12921 75.3205 10.606 75.6586 12.6198 75.6586Z"/>
<path d="M42.7598 80.7971L36.7855 55.6452L31.5497 80.7971H25.374L33.0265 43.6777H39.8734L45.6462 68.2888L50.815 43.6777H56.9906L49.3382 80.7971H42.7598Z"/>
<path d="M50.6807 80.7971L58.3331 43.6777H65.0457L58.4673 75.3205H70.6844L69.5432 80.7971H50.6807Z"/>
<path d="M70.751 80.7971L78.4034 43.6777H85.1161L77.3965 80.7971H70.751Z"/>
<path d="M96.125 80.7971L90.1508 55.6452L84.982 80.7971H78.7393L86.3917 43.6777H93.3057L99.0786 68.2888L104.18 43.6777H110.356L102.703 80.7971H96.125Z"/>
<path d="M124.05 75.3205L122.908 80.7971H104.046L111.765 43.6777H130.628L129.487 49.0868H117.27L115.323 58.6201H127.07L125.996 63.8939H114.182L111.765 75.3205H124.05Z"/>
<path d="M179.832 11.7646L177.818 10.6152V12.9816L175.804 11.8322V9.46578L173.79 8.31636V10.6828L171.777 9.53339V11.8998L169.763 10.7504V8.38397L167.749 7.23456V9.601L165.735 8.45159L163.721 9.601L161.708 8.45159L159.694 9.601V7.23456L161.708 6.08514L163.721 7.23456L165.735 6.08514L163.721 4.93573L161.708 6.08514V3.51586L159.694 4.66528V7.03172L157.68 8.18114V10.5476L155.666 11.697V9.33055L157.68 8.18114V5.8823L155.666 7.03172V9.39816L153.652 10.5476V8.18114L151.639 9.33055V11.697L149.625 12.8464V10.48L147.611 11.6294V13.9958L149.625 12.8464V15.2129L147.611 16.3623V18.7287L149.625 17.5793V19.9457L147.611 21.0952V23.4616L149.625 22.3122V19.9457L151.639 18.7963V21.1628L149.625 22.3122V24.6786L147.611 25.828V28.1945L149.625 27.0451L151.639 28.1945L153.652 27.0451L151.639 25.8957L149.625 27.0451V24.6786L151.639 23.5292L153.652 24.6786L155.666 23.5292L157.68 24.6786V22.3122L159.694 23.4616V25.828L157.68 24.6786L155.666 25.828L153.652 24.6786V27.0451L155.666 28.1945L153.652 29.3439L151.639 28.1945V30.5609L153.652 31.7104L151.639 32.8598L153.652 34.0092L155.666 32.8598L157.68 34.0092V31.6427L155.666 30.4933L157.68 29.3439L155.666 28.1945V25.828L157.68 26.9775V29.3439L159.694 30.4933L157.68 31.6427L159.694 32.7922V35.1586L157.68 34.0092L155.666 35.1586L157.68 36.308L159.694 35.1586L161.708 36.308L159.694 37.4574L161.708 38.6068L163.721 37.4574L161.708 36.308V33.9416L163.721 35.091L165.735 33.9416V36.308L167.749 35.1586L169.763 36.308L171.777 35.1586L169.763 34.0092L171.777 32.8598V30.4933L169.763 31.6427L167.749 30.4933L169.763 29.3439L171.777 30.4933L173.79 29.3439L171.777 28.1945L173.79 27.0451L175.804 28.1945L177.818 27.0451L175.804 25.8957L173.79 27.0451V24.6786L171.777 25.828L169.763 24.6786L167.749 25.828V23.4616L165.735 24.611V26.9775L167.749 25.828L169.763 26.9775L171.777 25.828V28.1945L169.763 29.3439V26.9775L167.749 28.1269V30.4933L165.735 31.6427V29.2763L167.749 28.1269L165.735 26.9775L163.721 28.1269L165.735 29.2763L163.721 30.4257L161.708 29.2763L163.721 28.1269L161.708 26.9775L159.694 28.1269L157.68 26.9775L159.694 25.828L161.708 26.9775V24.611L163.721 25.7604L165.735 24.611L163.721 23.4616L165.735 22.3122L167.749 23.4616L169.763 22.3122L167.749 21.1628L169.763 20.0134L171.777 21.1628L169.763 22.3122V24.6786L171.777 23.5292V21.1628L173.79 20.0134L171.777 18.8639L169.763 20.0134V17.5793L171.777 16.4299L173.79 17.5793V15.2129L171.777 14.0634V11.697L173.79 12.8464V10.48L175.804 11.6294V13.9958L173.79 12.8464V15.2129L175.804 16.3623V18.7287L173.79 17.5793V19.9457L175.804 21.0952V23.4616L173.79 22.3122L171.777 23.4616L173.79 24.611L175.804 23.4616L177.818 24.611V26.9775L179.832 28.1269V25.7604L177.818 24.611V22.3122L175.804 21.1628V18.7963L177.818 19.9457V22.3122L179.832 23.4616V21.0952L177.818 19.9457V17.5793L175.804 16.4299V14.0634L177.818 15.2129V17.5793L179.832 18.7287V16.3623L177.818 15.2129V12.8464L179.832 13.9958V11.7646ZM179.832 30.4933L177.818 29.3439L175.804 30.4933L177.818 31.6427L179.832 30.4933ZM175.804 32.8598L173.79 31.7104L175.804 30.5609V28.1945L173.79 29.3439V31.7104L171.777 32.8598L173.79 34.0092L175.804 32.8598ZM167.749 37.525L165.735 36.3756L163.721 37.525L165.735 38.6745L167.749 37.525ZM151.571 30.4933L149.558 29.3439L147.544 30.4933L149.558 31.6427L151.571 30.4933ZM165.735 5.8823L167.749 7.03172V4.66528L165.735 3.51586V5.8823ZM169.763 8.18114L171.777 9.33055V6.96411L169.763 5.81469V8.18114ZM181.845 10.5476V31.6427L163.654 42.1903L145.463 31.6427V10.5476L163.721 0L181.845 10.5476ZM161.708 31.7104V29.3439L159.694 28.1945V30.5609L161.708 31.7104ZM167.749 18.7963L165.735 17.6469L163.721 18.7963L161.708 17.6469L159.694 18.7963L161.708 19.9457L163.721 18.7963L165.735 19.9457L167.749 18.7963ZM167.749 16.4299L169.763 17.5793L167.749 18.7287V21.0952L165.735 22.2446V19.8781L163.721 21.0275L161.708 19.8781V22.3122L163.721 23.4616L161.708 24.611L159.694 23.4616L161.708 22.3122L159.694 21.1628V18.7963L157.68 17.6469V20.0134L159.694 21.1628L157.68 22.3122L155.666 21.1628V23.5292L153.652 22.3798L151.639 23.5292V21.1628L153.652 20.0134L155.666 21.1628L157.68 20.0134L155.666 18.8639L153.652 20.0134V17.5793L155.666 16.4299L157.68 17.5793L159.694 16.4299L157.68 15.2805L155.666 16.4299V14.0634L157.68 12.914V10.5476L159.694 9.39816L161.708 10.5476V12.914L159.694 11.7646L157.68 12.914L159.694 14.0634L161.708 12.914L163.721 14.0634L161.708 15.2129L159.694 14.0634V16.4299L161.708 17.5793V15.2129L163.721 16.3623L165.735 15.2129L163.721 14.0634L165.735 12.914L167.749 14.0634L169.763 12.914L171.777 14.0634V16.4299L169.763 15.2805L167.749 16.4299V14.0634L165.735 15.2129V17.5793L167.749 16.4299ZM153.585 31.7104L155.599 32.8598V30.4933L153.585 29.3439V31.7104ZM153.585 15.2805L155.599 14.1311V11.7646L153.585 12.914V15.2805L151.571 16.4299V18.7963L153.585 17.6469V15.2805ZM163.721 32.8598L165.735 34.0092L167.749 32.8598L165.735 31.7104L163.721 32.8598ZM151.571 14.0634L149.558 15.2129V17.5793L151.571 16.4299V14.0634ZM153.585 12.914V10.5476L151.571 11.697V14.0634L153.585 12.914ZM167.749 32.8598V35.2262L169.763 34.0768V31.7104L167.749 32.8598ZM161.708 31.7104L159.694 32.8598L161.708 34.0092L163.721 32.8598L161.708 31.7104ZM165.735 10.5476L167.749 9.39816L169.763 10.5476V12.914L167.749 11.7646L165.735 12.914V10.5476L163.721 11.697L161.708 10.5476L163.721 9.39816L165.735 10.5476Z"/>
<path fill-rule="evenodd" clip-rule="evenodd" d="M114.048 3.11011C108.409 3.11011 103.173 4.32714 98.4746 6.82881C101.227 8.18106 104.919 9.33048 108.074 10.0066C108.208 9.87138 108.275 9.73615 108.409 9.66854C108.342 9.39809 108.208 8.9248 108.141 8.65435C108.812 8.18106 110.826 7.36971 110.826 7.36971L110.557 4.86804L111.631 4.46236L112.638 6.96403C119.619 6.35552 120.358 9.4657 120.761 10.3447C124.184 9.80376 127.742 8.72196 130.36 7.23448C126.601 5.00326 120.828 3.11011 114.048 3.11011Z"/>
<path fill-rule="evenodd" clip-rule="evenodd" d="M91.9639 12.1027C93.7763 12.7112 97.4682 13.7254 103.778 14.7396C104.315 13.9282 106.799 11.4265 107.47 10.7504C102.57 9.80384 98.7437 8.11352 97.4011 7.505C95.5216 8.58681 93.5078 10.2095 91.9639 12.1027ZM121.164 15.4833C128.481 15.0776 134.522 13.5901 136.737 12.7788C135.328 10.8856 133.18 8.99248 131.367 7.91068C130.092 8.58681 126.601 10.2095 121.03 11.0885C121.567 12.4407 121.164 15.4833 121.164 15.4833Z"/>
<path fill-rule="evenodd" clip-rule="evenodd" d="M88.6748 20.419H107.604C108.947 18.0525 112.035 16.565 112.035 16.565C112.035 16.565 110.021 16.4298 108.813 16.3622C107.873 17.1059 105.926 18.9991 103.98 15.7537C99.7507 15.2128 94.5819 14.0634 91.3599 12.9816C89.3461 15.6861 88.8091 18.323 88.6748 20.419ZM139.624 20.419C139.624 18.323 138.885 15.8889 137.476 13.7929C136.066 14.1986 130.428 15.9565 120.963 16.4974C120.761 17.8497 120.291 19.2695 120.157 20.419C121.03 20.419 138.08 20.419 139.624 20.419Z"/>
<path fill-rule="evenodd" clip-rule="evenodd" d="M88.7412 21.4331C89.5467 21.4331 107.067 21.4331 107.067 21.4331C106.664 22.2445 106.328 23.9348 106.395 24.8814C96.4608 25.7603 92.1647 27.383 90.755 27.7887C89.681 26.0984 88.8083 24.07 88.7412 21.4331ZM120.089 21.4331C120.761 21.4331 139.019 21.4331 139.623 21.4331C139.489 24.3405 138.348 26.6393 137.408 28.0591C136.2 27.7211 130.293 25.7603 121.096 24.949C120.626 24.3405 119.888 22.9882 120.089 21.4331Z"/>
<path fill-rule="evenodd" clip-rule="evenodd" d="M91.292 28.6677C92.2989 28.2621 97.8704 26.4365 106.463 25.828C106.53 26.7746 106.798 27.8564 106.798 27.8564C106.798 27.8564 120.828 27.8564 121.298 27.8564C122.036 27.045 121.633 25.9632 121.633 25.9632C128.547 26.5041 135.528 28.5325 136.737 28.9382C135.394 30.7637 133.179 32.7245 130.897 34.0767C128.95 33.333 123.916 31.0342 117.203 30.4933C117.941 29.4791 120.626 29.2086 121.298 29.141V28.1268H106.798V29.141C106.798 29.141 109.886 29.2086 110.692 30.4257C102.368 31.1018 98.0046 33.8739 97.4676 34.212C95.0511 32.7921 92.8359 30.8313 91.292 28.6677Z"/>
<path fill-rule="evenodd" clip-rule="evenodd" d="M129.688 34.7531C127.54 35.9701 124.721 36.9843 122.036 37.5928V33.4684C121.096 33.4684 120.828 33.4684 120.224 33.4684C118.948 33.4684 118.143 33.3332 117.538 32.8599C116.867 32.3866 116.8 31.6429 116.867 31.3048C124.251 31.9809 129.688 34.7531 129.688 34.7531Z"/>
<path fill-rule="evenodd" clip-rule="evenodd" d="M105.725 37.525C102.973 36.8489 100.422 35.9023 98.4082 34.7529C100.623 33.2654 105.054 31.5751 111.028 31.1694C111.095 31.3723 111.162 32.4541 110.357 32.9274C109.283 33.6035 105.658 33.4007 105.658 33.4007V37.525H105.725Z"/>
<path d="M107.47 34.6177H110.155V35.429H108.477V36.4432H110.088V37.2546H108.477V39.0801H107.47V34.6177Z"/>
<path d="M111.967 34.6177H110.96V39.0801H111.967V34.6177Z"/>
<path d="M112.772 34.6853C113.108 34.6177 113.645 34.6177 114.115 34.6177C114.988 34.6177 115.525 34.7529 115.927 35.091C116.397 35.429 116.666 35.9699 116.666 36.7813C116.666 37.6602 116.33 38.2011 115.927 38.6068C115.458 39.0125 114.719 39.1477 113.914 39.1477C113.377 39.1477 113.041 39.1477 112.772 39.0801V34.6853ZM113.779 38.2688C113.846 38.2688 113.981 38.2688 114.115 38.2688C115.055 38.2688 115.592 37.7955 115.592 36.7137C115.592 35.7671 115.055 35.2938 114.182 35.2938C113.981 35.2938 113.846 35.2938 113.712 35.3614V38.2688H113.779Z"/>
<path d="M119.955 37.187H118.344V38.2011H120.156V39.0801H117.337V34.6177H120.022V35.429H118.344V36.3756H119.955V37.187Z"/>
</svg>
