<svg width="17" height="25" viewBox="0 0 17 25" xmlns="http://www.w3.org/2000/svg">
<path fill-rule="evenodd" clip-rule="evenodd" d="M7.7584 2.38359L7.30202 2.82705C6.65372 3.457 6.34372 3.79475 5.97537 4.19608C5.88993 4.28916 5.80136 4.38566 5.7047 4.49002L4.849 3.49224C4.94566 3.40685 5.03555 3.32804 5.12118 3.25297C5.59144 2.84069 5.93303 2.54121 6.56041 1.8847L8.44296 0L10.1544 1.60754C10.953 2.32816 11.5235 2.82705 12.151 3.32594L11.3524 4.43459C11.0264 4.08263 10.7004 3.77536 10.3014 3.39928C10.072 3.18305 9.81841 2.94406 9.52685 2.66075L9.24162 2.38359V15.8537H7.7584V2.38359ZM11.0671 10.1441V8.70289H17V25H0V8.64746H6.04698V10.0887H1.48322V23.5588H15.5168V10.1441H11.0671Z"/>
</svg>
