<svg width="100%" height="100%" viewBox="0 0 247.1 305" fill="none" xmlns="http://www.w3.org/2000/svg">
	<style>.st0{fill:#ffc1a8}.ast1{fill:#fff}.st2{fill:#00c24f}.st3{fill:#f64747}.st4{fill:#a58aff}.st5{clip-path:url(#SVGID_2_)}.st6{clip-path:url(#SVGID_4_);fill:#737373}.st7{clip-path:url(#SVGID_6_)}.st8{clip-path:url(#SVGID_8_);fill:#1dbf55}.st9{clip-path:url(#SVGID_10_)}.st10{clip-path:url(#SVGID_12_);fill:#f2494c}.st11{clip-path:url(#SVGID_14_)}.st12{clip-path:url(#SVGID_16_);fill:#a48cfb}</style>
    <path d="M173.4 107.6l-19-15.9c-5-4.2-10.7-7.4-16.8-9.4.5-.7.8-1.4.8-2.3 0-2-1.5-3.7-3.5-3.9L146.8 65l-6.2-8.2 5.7-6.8c2.1-4.8-2.6-9.7-7.5-7.8l-9.2 2.7c-1.9.6-3.9.9-5.8 1.1 1.1-1 1.7-2.4 1.7-3.9 0-2.9-2.4-5.3-5.3-5.3s-5.3 2.4-5.3 5.3c0 1.5.6 2.8 1.6 3.8-1.6-.2-3.2-.5-4.7-1l-9.2-2.7c-4.9-1.9-9.6 3-7.5 7.8l5.7 6.8-6.2 8.2 11.7 11c-2.1 0-3.8 1.8-3.8 3.9 0 1 .4 1.9 1 2.6l-14.3 4.6c-18.9 6.1-32.6 22.5-35.4 42.1l-2.3 16.4c-2.5 17.7 4.3 35.5 18 47.1l19 15.9c6.6 5.5 14.4 9.2 22.5 11h-4c-2.2 0-3.9 1.8-3.9 3.9 0 2.1 1.6 3.8 3.6 3.9v1.6c0 2.5-.4 4.9-1.1 7.1l-4.6 14.1c-1.5 4.5-.8 9.4 1.3 11.7h-.5c-2.2 0-3.9 1.8-3.9 3.9 0 2.2 1.8 3.9 3.9 3.9h2.3c-.8.4-1.4 1.2-1.4 2.2 0 1.4 1.1 2.5 2.5 2.5h30.9c1.4 0 2.5-1.1 2.5-2.5 0-1-.6-1.8-1.4-2.2h2.3c2.2 0 3.9-1.8 3.9-3.9 0-2.2-1.8-3.9-3.9-3.9h-.5c2.1-2.3 2.8-7.1 1.3-11.7l-4.8-14.5c-.7-2.2-1.1-4.7-1.1-7.1v-1.2c2.1-.1 3.8-1.8 3.8-3.9 0-2.2-1.8-3.9-3.9-3.9h-1.6c1.7-.4 3.5-.8 5.2-1.4l15.8-5.1c18.9-6.1 32.6-22.5 35.4-42.1l2.3-16.4c2.5-17.7-4.3-35.5-18-47z"/>
    <path class="ast1" d="M123.8 135.6l-.5 2.3-12.6-2.7-7 32.5-4.8-1 7-32.5-12.6-2.7.5-2.3 30 6.4zm21 46.3l-.5 2.3-28.1-6.1.5-2.3 28.1 6.1zm40-33.1l-.5 2.3-12.6-2.7-7 32.5-4.8-1 7-32.5-12.6-2.7.5-2.3 30 6.4z"/>
</svg>