<svg width="1044" height="118" viewBox="0 0 1044 118" fill="none" xmlns="http://www.w3.org/2000/svg">
  <path d="M794.917 104.526L795.073 81.9663H776.072L766.883 104.526H751.309L787.13 17.9146H809.713V104.526H794.917ZM781.056 69.3453H795.228L795.54 33.8486L781.056 69.3453Z" fill="white"/>
  <path d="M849.428 104.526L845.223 67.4521H834.788L827.157 104.526H811.738L829.493 17.9146H854.879C862.667 17.9146 868.273 19.1767 872.011 21.5431C875.593 23.9095 877.462 27.5381 877.462 32.271C877.462 32.7443 877.462 33.3753 877.462 34.0064C877.462 34.6374 877.307 35.584 877.151 37.0039C876.995 38.266 876.684 40.1591 876.216 42.5256C875.749 44.892 875.126 48.0473 874.347 51.8336C873.569 56.2509 871.856 59.564 869.364 61.9304C866.872 64.2969 863.601 65.8745 859.708 66.8211L864.691 104.842H849.428V104.526ZM853.945 30.2201H842.576L837.28 55.9354H848.494C851.765 55.9354 854.256 55.4621 855.814 54.6733C857.371 53.8845 858.462 51.8336 859.24 48.5206C859.863 45.6808 860.33 43.3144 860.642 41.579C860.953 39.8436 861.265 38.5815 861.421 37.6349C861.576 36.6883 861.732 36.0573 861.732 35.7418C861.732 35.4262 861.732 35.1107 861.732 34.953C861.732 33.3753 861.109 32.1132 859.863 31.3244C858.773 30.6933 856.748 30.2201 853.945 30.2201Z" fill="white"/>
  <path d="M912.658 91.7476L910.01 104.526H866.246L884.157 17.9146H927.921L925.273 30.5356H896.928L892.411 52.7802H919.666L917.174 65.0857H889.763L884.157 91.7476H912.658Z" fill="white"/>
  <path d="M953.463 104.526L939.602 45.8386L927.609 104.526H913.125L930.88 17.9146H946.922L960.315 75.3403L972.152 17.9146H986.481L968.726 104.526H953.463Z" fill="white"/>
  <path d="M1014.2 104.526L1014.36 81.9663H995.357L986.168 104.526H970.594L1006.41 17.9146H1029V104.526H1014.2ZM1000.34 69.3453H1014.51L1014.83 33.8486L1000.34 69.3453Z" fill="white"/>
  <path d="M469.099 105C460.222 105 453.369 103.265 448.853 99.9515C444.336 96.4807 442 91.9056 442 85.7528C442 85.1218 442 84.4907 442.156 83.5442C442.311 82.5976 442.623 80.7044 443.09 77.8647C443.557 75.025 444.336 70.9231 445.426 65.4014C446.517 59.8797 448.074 52.4649 450.099 42.8413C451.968 33.8488 455.55 27.3806 460.845 23.2787C466.14 19.1769 473.928 17.126 484.051 17.126C492.928 17.126 499.781 18.8614 504.298 22.1744C508.814 25.4874 511.15 30.2203 511.15 36.3731C511.15 37.0041 511.15 37.6352 510.995 38.5817C510.839 39.5283 510.527 41.4215 510.06 44.2612C509.593 47.1009 508.814 51.2028 507.724 56.7245C506.634 62.2462 505.076 69.661 503.052 79.2846C501.183 88.277 497.601 94.7453 492.305 98.8472C487.166 102.949 479.379 105 469.099 105ZM471.28 92.5366C476.108 92.5366 479.69 91.4323 482.338 89.2236C484.985 87.0149 486.854 83.0709 488.1 77.0759C489.969 68.3989 491.371 61.6151 492.305 56.7245C493.24 51.8338 494.019 48.0475 494.486 45.5233C494.953 42.9991 495.265 41.4215 495.42 40.6327C495.576 39.8438 495.576 39.2128 495.576 38.8973C495.576 35.742 494.486 33.3756 492.305 32.1135C490.125 30.6936 486.699 30.0625 482.026 30.0625C477.198 30.0625 473.616 31.1669 470.968 33.3756C468.321 35.5842 466.452 39.5283 465.206 45.5233C463.337 54.2003 461.935 60.9841 461.001 65.8747C460.066 70.7654 459.288 74.5517 458.82 77.0759C458.353 79.6001 458.042 81.1777 457.886 81.9665C457.73 82.7553 457.73 83.3864 457.73 83.8597C457.73 87.0149 458.82 89.2236 461.001 90.6435C463.181 91.7478 466.608 92.5366 471.28 92.5366Z" fill="white"/>
  <path d="M541.209 104.526L527.348 45.8386L515.2 104.526H500.871L518.626 17.9146H534.512L547.906 75.3403L559.898 17.9146H574.227L556.472 104.526H541.209Z" fill="white"/>
  <path d="M559.586 104.526L577.341 17.9146H592.915L577.652 91.7476H605.998L603.35 104.526H559.586Z" fill="white"/>
  <path d="M606.152 104.526L623.907 17.9146H639.482L621.571 104.526H606.152Z" fill="white"/>
  <path d="M665.025 104.526L651.164 45.8386L639.172 104.526H624.688L642.442 17.9146H658.484L671.878 75.3403L683.715 17.9146H698.043L680.288 104.526H665.025Z" fill="white"/>
  <path d="M729.814 91.7476L727.166 104.526H683.402L701.313 17.9146H745.077L742.429 30.5356H714.084L709.567 52.7802H736.823L734.331 65.0857H706.92L701.313 91.7476H729.814Z" fill="white"/>
  <path d="M61.6169 69.1105H34.3616L26.4187 107.131H11L28.7548 20.5195H72.6747L70.0271 33.6139H41.6816L36.8535 56.4895H64.2645L61.6169 69.1105Z" fill="white"/>
  <path d="M57.7227 107.131L75.4775 20.5195H91.0519L73.1413 107.131H57.7227Z" fill="white"/>
  <path d="M118.62 20.5195C128.276 20.5195 135.285 22.2549 139.646 25.5679C144.007 28.881 146.343 33.6139 146.343 39.6088C146.343 40.2399 146.343 41.0287 146.187 41.9753C146.031 42.9219 145.72 44.815 145.253 47.6548C144.785 50.4945 144.007 54.5963 142.916 60.118C141.826 65.6397 140.269 73.0546 138.244 82.5204C136.375 91.3551 132.949 97.6656 127.653 101.452C122.514 105.238 114.415 107.131 103.357 107.131H76.2578L94.0127 20.5195H118.62ZM123.448 79.5229C125.161 71.1614 126.563 64.5354 127.498 59.8025C128.432 54.9119 129.211 51.2833 129.678 48.9169C130.145 46.5504 130.457 44.815 130.457 44.0262C130.613 43.2374 130.613 42.6063 130.613 42.1331C130.613 38.82 129.522 36.4536 127.342 35.0337C125.161 33.6139 121.891 32.9828 117.374 32.9828H106.939L94.0127 94.6681H105.849C110.989 94.6681 114.882 93.7215 117.53 91.6706C120.178 89.7775 122.047 85.6756 123.448 79.5229Z" fill="white"/>
  <path d="M182.631 94.3526L179.983 107.131H136.219L153.974 20.5195H197.893L195.246 33.2983H166.9L162.228 55.3851H189.639L187.147 67.8484H159.58L154.129 94.3526H182.631Z" fill="white"/>
  <path d="M412.975 39.4508L408.303 36.7688V42.2905L403.631 39.6085V34.0868L398.958 31.4048V36.9265L394.286 34.2446V39.7663L389.614 37.0843V31.5626L384.941 28.8806V34.4023L380.269 31.7204L375.597 34.4023L370.924 31.7204L366.252 34.4023V28.8806L370.924 26.1987L375.597 28.8806L380.269 26.1987L375.597 23.5167L370.924 26.1987V20.2037L366.252 22.8856V28.4073L361.58 31.0893V36.611L356.907 39.293V33.7713L361.58 31.0893V25.7254L356.907 28.4073V33.929L352.235 36.611V31.0893L347.563 33.7713V39.293L342.891 41.975V36.4533L338.218 39.1352V44.6569L342.891 41.975V47.4967L338.218 50.1786V55.7003L342.891 53.0184V58.5401L338.218 61.222V66.7437L342.891 64.0618V58.5401L347.563 55.8581V61.3798L342.891 64.0618V69.5835L338.218 72.2654V77.7871L342.891 75.1052L347.563 77.7871L352.235 75.1052L347.563 72.4232L342.891 75.1052V69.5835L347.563 66.9015L352.235 69.5835L356.907 66.9015L361.58 69.5835V64.0618L366.252 66.7437V72.2654L361.58 69.5835L356.907 72.2654L352.235 69.5835V75.1052L356.907 77.7871L352.235 80.4691L347.563 77.7871V83.3089L352.235 85.9908L347.563 88.6728L352.235 91.3548L356.907 88.6728L361.58 91.3548V85.8331L356.907 83.1511L361.58 80.4691L356.907 77.7871V72.2654L361.58 74.9474V80.4691L366.252 83.1511L361.58 85.8331L366.252 88.515V94.0367L361.58 91.3548L356.907 94.0367L361.58 96.7187L366.252 94.0367L370.924 96.7187L366.252 99.4007L370.924 102.083L375.597 99.4007L370.924 96.7187V91.197L375.597 93.879L380.269 91.197V96.7187L384.941 94.0367L389.614 96.7187L394.286 94.0367L389.614 91.3548L394.286 88.6728V83.1511L389.614 85.8331L384.941 83.1511L389.614 80.4691L394.286 83.1511L398.958 80.4691L394.286 77.7871L398.958 75.1052L403.631 77.7871L408.303 75.1052L403.631 72.4232L398.958 75.1052V69.5835L394.286 72.2654L389.614 69.5835L384.941 72.2654V66.7437L380.269 69.4257V74.9474L384.941 72.2654L389.614 74.9474L394.286 72.2654V77.7871L389.614 80.4691V74.9474L384.941 77.6294V83.1511L380.269 85.8331V80.3114L384.941 77.6294L380.269 74.9474L375.597 77.6294L380.269 80.3114L375.597 82.9933L370.924 80.3114L375.597 77.6294L370.924 74.9474L366.252 77.6294L361.58 74.9474L366.252 72.2654L370.924 74.9474V69.4257L375.597 72.1077L380.269 69.4257L375.597 66.7437L380.269 64.0618L384.941 66.7437L389.614 64.0618L384.941 61.3798L389.614 58.6978L394.286 61.3798L389.614 64.0618V69.5835L394.286 66.9015V61.3798L398.958 58.6978L394.286 56.0159L389.614 58.6978V53.0184L394.286 50.3364L398.958 53.0184V47.4967L394.286 44.8147V39.293L398.958 41.975V36.4533L403.631 39.1352V44.6569L398.958 41.975V47.4967L403.631 50.1786V55.7003L398.958 53.0184V58.5401L403.631 61.222V66.7437L398.958 64.0618L394.286 66.7437L398.958 69.4257L403.631 66.7437L408.303 69.4257V74.9474L412.975 77.6294V72.1077L408.303 69.4257V64.0618L403.631 61.3798V55.8581L408.303 58.5401V64.0618L412.975 66.7437V61.222L408.303 58.5401V53.0184L403.631 50.3364V44.8147L408.303 47.4967V53.0184L412.975 55.7003V50.1786L408.303 47.4967V41.975L412.975 44.6569V39.4508ZM412.975 83.1511L408.303 80.4691L403.631 83.1511L408.303 85.8331L412.975 83.1511ZM403.631 88.6728L398.958 85.9908L403.631 83.3089V77.7871L398.958 80.4691V85.9908L394.286 88.6728L398.958 91.3548L403.631 88.6728ZM384.941 99.5584L380.269 96.8765L375.597 99.5584L380.269 102.24L384.941 99.5584ZM347.407 83.1511L342.735 80.4691L338.062 83.1511L342.735 85.8331L347.407 83.1511ZM380.269 25.7254L384.941 28.4073V22.8856L380.269 20.2037V25.7254ZM389.614 31.0893L394.286 33.7713V28.2496L389.614 25.5676V31.0893ZM417.648 36.611V85.8331L375.441 110.444L333.234 85.8331V36.611L375.597 12L417.648 36.611ZM370.924 85.9908V80.4691L366.252 77.7871V83.3089L370.924 85.9908ZM384.941 55.8581L380.269 53.1761L375.597 55.8581L370.924 53.1761L366.252 55.8581L370.924 58.5401L375.597 55.8581L380.269 58.5401L384.941 55.8581ZM384.941 50.3364L389.614 53.0184L384.941 55.7003V61.222L380.269 63.904V58.3823L375.597 61.0643L370.924 58.3823V64.0618L375.597 66.7437L370.924 69.4257L366.252 66.7437L370.924 64.0618L366.252 61.3798V55.8581L361.58 53.1761V58.6978L366.252 61.3798L361.58 64.0618L356.907 61.3798V66.9015L352.235 64.2195L347.563 66.9015V61.3798L352.235 58.6978L356.907 61.3798L361.58 58.6978L356.907 56.0159L352.235 58.6978V53.0184L356.907 50.3364L361.58 53.0184L366.252 50.3364L361.58 47.6544L356.907 50.3364V44.8147L361.58 42.1327V36.611L366.252 33.929L370.924 36.611V42.1327L366.252 39.4508L361.58 42.1327L366.252 44.8147L370.924 42.1327L375.597 44.8147L370.924 47.4967L366.252 44.8147V50.3364L370.924 53.0184V47.4967L375.597 50.1786L380.269 47.4967L375.597 44.8147L380.269 42.1327L384.941 44.8147L389.614 42.1327L394.286 44.8147V50.3364L389.614 47.6544L384.941 50.3364V44.8147L380.269 47.4967V53.0184L384.941 50.3364ZM352.079 85.9908L356.752 88.6728V83.1511L352.079 80.4691V85.9908ZM352.079 47.6544L356.752 44.9725V39.4508L352.079 42.1327V47.6544L347.407 50.3364V55.8581L352.079 53.1761V47.6544ZM375.597 88.6728L380.269 91.3548L384.941 88.6728L380.269 85.9908L375.597 88.6728ZM347.407 44.8147L342.735 47.4967V53.0184L347.407 50.3364V44.8147ZM352.079 42.1327V36.611L347.407 39.293V44.8147L352.079 42.1327ZM384.941 88.6728V94.1945L389.614 91.5125V85.9908L384.941 88.6728ZM370.924 85.9908L366.252 88.6728L370.924 91.3548L375.597 88.6728L370.924 85.9908ZM380.269 36.611L384.941 33.929L389.614 36.611V42.1327L384.941 39.4508L380.269 42.1327V36.611L375.597 39.293L370.924 36.611L375.597 33.929L380.269 36.611Z" fill="white"/>
  <path fill-rule="evenodd" clip-rule="evenodd" d="M260.348 19.2573C247.265 19.2573 235.117 22.0971 224.215 27.9343C230.6 31.0895 239.166 33.7715 246.486 35.3491C246.798 35.0336 246.954 34.7181 247.265 34.5603C247.109 33.9293 246.798 32.8249 246.642 32.1939C248.199 31.0895 252.872 29.1964 252.872 29.1964L252.249 23.3592L254.741 22.4126L257.077 28.2498C273.274 26.8299 274.987 34.087 275.922 36.138C283.865 34.8759 292.119 32.3516 298.193 28.8809C289.472 23.6747 276.078 19.2573 260.348 19.2573Z" fill="white"/>
  <path fill-rule="evenodd" clip-rule="evenodd" d="M209.109 40.2391C213.314 41.659 221.88 44.0254 236.52 46.3919C237.766 44.4987 243.529 38.6615 245.086 37.0838C233.717 34.8752 224.84 30.9311 221.725 29.5112C217.364 32.0354 212.691 35.8217 209.109 40.2391ZM276.858 48.1273C293.834 47.1807 307.851 43.7099 312.991 41.8167C309.72 37.3994 304.736 32.982 300.531 30.4578C297.572 32.0354 289.473 35.8217 276.547 37.8727C277.793 41.0279 276.858 48.1273 276.858 48.1273Z" fill="white"/>
  <path fill-rule="evenodd" clip-rule="evenodd" d="M201.477 59.644H245.396C248.511 54.1223 255.676 50.6515 255.676 50.6515C255.676 50.6515 251.003 50.3359 248.2 50.1782C246.019 51.9136 241.503 56.3309 236.986 48.7583C227.174 47.4962 215.182 44.8142 207.706 42.29C203.034 48.6006 201.788 54.7533 201.477 59.644ZM319.686 59.644C319.686 54.7533 317.973 49.0738 314.703 44.1832C311.432 45.1298 298.349 49.2316 276.39 50.4937C275.922 53.649 274.832 56.962 274.521 59.644C276.545 59.644 316.104 59.644 319.686 59.644Z" fill="white"/>
  <path fill-rule="evenodd" clip-rule="evenodd" d="M201.633 62.0112C203.502 62.0112 244.151 62.0112 244.151 62.0112C243.217 63.9044 242.438 67.8485 242.594 70.0571C219.543 72.1081 209.576 75.8944 206.305 76.8409C203.813 72.8969 201.789 68.164 201.633 62.0112ZM274.365 62.0112C275.923 62.0112 318.285 62.0112 319.687 62.0112C319.375 68.795 316.728 74.159 314.547 77.472C311.744 76.6832 298.038 72.1081 276.701 70.2149C275.611 68.795 273.898 65.6398 274.365 62.0112Z" fill="white"/>
  <path fill-rule="evenodd" clip-rule="evenodd" d="M207.551 78.8917C209.887 77.9451 222.814 73.6855 242.749 72.2656C242.905 74.4743 243.528 76.9985 243.528 76.9985C243.528 76.9985 276.078 76.9985 277.168 76.9985C278.882 75.1054 277.947 72.5812 277.947 72.5812C293.989 73.8433 310.186 78.5761 312.99 79.5227C309.875 83.7823 304.735 88.3574 299.44 91.5127C294.923 89.7773 283.242 84.4134 267.668 83.1513C269.381 80.7848 275.611 80.1538 277.168 79.996V77.6296H243.528V79.996C243.528 79.996 250.692 80.1538 252.561 82.9935C233.249 84.5711 223.125 91.0394 221.879 91.8282C216.272 88.5152 211.133 83.9401 207.551 78.8917Z" fill="white"/>
  <path fill-rule="evenodd" clip-rule="evenodd" d="M296.635 93.0903C291.651 95.9301 285.109 98.2965 278.88 99.7164V90.0928C276.699 90.0928 276.076 90.0928 274.675 90.0928C271.715 90.0928 269.847 89.7773 268.445 88.673C266.887 87.5686 266.732 85.8332 266.887 85.0444C284.019 86.6221 296.635 93.0903 296.635 93.0903Z" fill="white"/>
  <path fill-rule="evenodd" clip-rule="evenodd" d="M241.035 99.5577C234.649 97.9801 228.731 95.7714 224.059 93.0895C229.198 89.6187 239.477 85.6746 253.338 84.728C253.494 85.2013 253.65 87.7255 251.781 88.8299C249.289 90.4075 240.879 89.9342 240.879 89.9342V99.5577H241.035Z" fill="white"/>
  <path d="M245.086 92.7739H251.316V94.6671H247.422V97.0335H251.16V98.9267H247.422V103.186H245.086V92.7739Z" fill="white"/>
  <path d="M255.52 92.7739H253.184V103.186H255.52V92.7739Z" fill="white"/>
  <path d="M257.387 92.9317C258.165 92.7739 259.411 92.7739 260.502 92.7739C262.526 92.7739 263.772 93.0895 264.707 93.8783C265.797 94.6671 266.42 95.9292 266.42 97.8223C266.42 99.8733 265.641 101.135 264.707 102.082C263.616 103.029 261.903 103.344 260.034 103.344C258.788 103.344 258.01 103.344 257.387 103.186V92.9317ZM259.723 101.293C259.879 101.293 260.19 101.293 260.502 101.293C262.682 101.293 263.928 100.189 263.928 97.6646C263.928 95.4559 262.682 94.3516 260.657 94.3516C260.19 94.3516 259.879 94.3516 259.567 94.5093V101.293H259.723Z" fill="white"/>
  <path d="M274.054 98.7689H270.317V101.135H274.522V103.186H267.98V92.7739H274.21V94.6671H270.317V96.8758H274.054V98.7689Z" fill="white"/>
</svg>
