<svg version="1.1" id="Layer_1" xmlns="http://www.w3.org/2000/svg" xmlns:xlink="http://www.w3.org/1999/xlink" x="0px" y="0px"
	 viewBox="0 0 67 52" style="enable-background:new 0 0 67 52;" xml:space="preserve">
<path class="st0" d="M50,3.6L50,3.6L50,3.6L50,3.6L50,3.6L50,3.6c0,0.1,0,0.2,0,0.3c0,0.2,0.1,0.5,0.1,0.8c0.1,0.6,0.1,1.5,0.2,2.5
	c0.5-0.9,1-1.8,1.5-2.6C53.7,2,56.2,0,59.3,0c2.1,0,3.9,0.6,5.2,1.7c1.3,1.1,2.2,2.6,2.4,4.3c0.5,3.4-1.2,7.5-5.3,11.1
	c-2.2,2-5.6,3.9-8.7,5.7c-0.1,0.1-0.2,0.1-0.4,0.2c-1.6,0.9-3.2,1.8-4.5,2.7c-1.3,0.9-2.4,1.6-3,2.4c-0.2,0.3-0.4,0.6-0.7,0.9
	c-0.8,1.3-1.1,2.9-1,4.2c0.2,1.4,0.8,2.3,1.7,2.6c1.1,0.4,2.1,0.1,3-0.6c0.9-0.7,1.4-1.8,1.5-2.8l2,0.1c-0.1,1.6-0.9,3.2-2.2,4.2
	c-1.3,1.1-3.1,1.7-5,1c-1.8-0.7-2.8-2.4-3-4.2c-0.1-0.4-0.1-0.9-0.1-1.3c-0.4,0.3-0.7,0.7-1.1,1c-1.2,1.1-2.3,2.2-3.4,3.4
	c-1.5,1.7-2.4,3.4-2.5,5.1c0,0,0,0.1,0,0.1c0,2.1,0,2.4,0,2.5c0,0,0,0,0,0c0,0.1,0,0.1,0,1.3V50h9.3v2H24v-2h8.4v-4.5
	c0-1.2,0-1.2,0-1.3c0,0,0,0,0,0c0-0.1,0-0.4,0-2.5h0c0,0,0-0.1,0-0.1c0-1.7-1-3.4-2.4-5.1c-1-1.2-2.2-2.4-3.5-3.6
	c-0.3-0.3-0.6-0.6-0.9-0.8c0,0.4,0,0.9-0.1,1.3c-0.2,1.8-1.2,3.5-3,4.2c-1.9,0.7-3.7,0.1-5-1c-1.3-1.1-2.1-2.7-2.2-4.2l2-0.1
	c0,1,0.6,2,1.5,2.8c0.8,0.7,1.9,1,3,0.6c0.9-0.3,1.5-1.2,1.7-2.6c0.2-1.3-0.1-2.9-1-4.2c-0.3-0.3-0.5-0.6-0.7-0.9
	c-0.7-0.7-1.7-1.5-3-2.4c-1.3-0.9-2.9-1.8-4.5-2.7c-0.1-0.1-0.2-0.1-0.4-0.2C11,20.9,7.6,19,5.3,17c-4-3.5-5.8-7.7-5.3-11.1
	c0.2-1.7,1.1-3.2,2.4-4.3C3.8,0.6,5.6,0,7.7,0c3.1,0,5.6,2,7.4,4.6c0.6,0.8,1.1,1.7,1.5,2.6c0-1,0.1-1.9,0.1-2.5
	c0-0.4,0.1-0.6,0.1-0.8c0-0.1,0-0.2,0-0.2l0-0.1l0,0l0,0 M17,3.6l0.1-0.9h32.8L50,3.6 M23.5,26.7c-1.1-1.5-1.6-2.6-2-3.6
	c0,0,0-0.1,0-0.1c-1-2.1-1.6-4.3-2-6.5c-0.1-0.9-0.2-1.8-0.4-2.7c-0.2-1.9-0.3-3.7-0.3-5.2l0-1c0-1.2,0.1-2.1,0.2-2.8
	c0-0.1,0-0.1,0-0.2h29.3c0,0,0,0.1,0,0.2c0.1,0.7,0.1,1.6,0.2,2.8c0,0,0,0,0,0l0,1c0,1.5-0.1,3.3-0.3,5.2c-0.2,0.9-0.3,1.8-0.4,2.7
	c-0.4,2.1-1.1,4.3-2,6.5c0,0,0,0.1,0,0.1c-0.4,0.9-0.9,2.1-2,3.6c-0.3,0.3-0.5,0.7-0.8,1c-0.6,0.7-1.3,1.5-2.1,2.3
	c-0.5,0.5-1.1,1-1.6,1.6c-1.2,1.2-2.5,2.4-3.6,3.6c-0.7,0.9-1.4,1.8-1.9,2.7c-0.5-1-1.2-1.9-1.9-2.7c-1.1-1.3-2.4-2.6-3.7-3.8
	c-0.5-0.5-1-0.9-1.5-1.4c-0.8-0.8-1.5-1.6-2.1-2.3C24.1,27.3,23.8,27,23.5,26.7z M47.4,23.6c1.3-0.8,2.7-1.6,4.1-2.4
	c0.1,0,0.2-0.1,0.3-0.1c3.2-1.8,6.4-3.7,8.5-5.5c3.7-3.3,5-6.8,4.6-9.3c-0.2-1.3-0.8-2.3-1.7-3C62.4,2.5,61,2,59.3,2
	c-2.2,0-4.1,1.4-5.8,3.7c-1.6,2.3-2.9,5.4-3.5,8.5c-0.1,0.9-0.3,1.8-0.4,2.7C49.1,19.1,48.4,21.3,47.4,23.6z M17,14.2
	c-0.7-3-1.9-6.1-3.5-8.5C11.8,3.4,9.9,2,7.7,2C6,2,4.6,2.5,3.7,3.2C2.8,3.9,2.2,5,2.1,6.2c-0.4,2.5,0.9,6,4.6,9.3
	c2.1,1.8,5.3,3.7,8.5,5.5c0.1,0,0.2,0.1,0.3,0.1c1.4,0.8,2.9,1.6,4.1,2.4c-1-2.2-1.6-4.5-2.1-6.7C17.3,16,17.1,15.1,17,14.2z"/>
</svg>
