<svg version="1.1" xmlns="http://www.w3.org/2000/svg" xmlns:xlink="http://www.w3.org/1999/xlink" x="0px" y="0px"
	 viewBox="0 0 12 15" style="enable-background:new 0 0 12 15;" xml:space="preserve">
<g>
	<path d="M10.9,15l-3.4-1.8v-1.8L8,11.3c1.7-0.4,2.5-1.2,2.8-1.6C10.2,9,9.3,7.7,9.3,5.6c0-3.3-0.9-4.5-3.3-4.5
		c-2.5,0-3.3,1.1-3.3,4.5c0,2-0.7,3.4-1.4,4.1c0.3,0.5,1.1,1.2,2.8,1.6l0.4,0.1v1.9L1.1,15l-0.5-1l2.8-1.5v-0.3
		c-2.2-0.6-3.1-1.9-3.3-2.5L0,9.4l0.3-0.2c0.1,0,1.3-1,1.3-3.6C1.6,2.7,2.2,0,6,0c3.9,0,4.4,2.8,4.4,5.6c0,2.1,1,3.2,1.4,3.6L12,9.4
		l-0.1,0.3c-0.2,0.7-1.2,1.9-3.3,2.5v0.3l2.8,1.5L10.9,15z"/>
</g>
</svg>
