<svg version="1.1" id="Layer_1" xmlns="http://www.w3.org/2000/svg" xmlns:xlink="http://www.w3.org/1999/xlink" x="0px" y="0px"
	 viewBox="0 0 17 13.5" style="enable-background:new 0 0 17 13.5;" xml:space="preserve">
<path d="M7.6,10.5c0-0.2-0.1-0.3-0.1-0.3C7.2,9.7,6.1,9.7,6.1,9.7l0,0c-1.5,0.2-2.8,0.5-3.8,0.8
	c0.9,0.7,2.1,1.3,3.4,1.6v-0.8c0,0,1.3,0.1,1.7-0.2C7.6,11,7.6,10.6,7.6,10.5z"/>
<path d="M9.8,10.2c-0.1,0.1-0.1,0.3-0.1,0.3c0,0.1,0,0.4,0.2,0.6c0.2,0.2,0.5,0.2,1,0.2c0.2,0,0.3,0,0.6,0V12
	c1.2-0.3,2.3-0.9,3.1-1.5c-1-0.3-2.2-0.6-3.5-0.8C10.8,9.8,10,9.9,9.8,10.2z"/>
<path d="M6,8.5l0-0.4c0-0.3,0.1-1,0.2-1.3c0,0,0-0.1,0.1-0.2H0c0.1,1.2,0.7,2.3,1.6,3.3c1-0.4,2.5-0.8,4.4-1
	C6,8.8,6,8.6,6,8.5z"/>
<path d="M10.8,6.6l0,0.2c-0.1,0.6,0.2,1.1,0.3,1.3l0.2,0.4l0,0.5c1.6,0.2,3,0.6,4,0.9c1-0.9,1.6-2.1,1.7-3.3H10.8z"/>
<path d="M6.5,2.5c0,0,0.1-0.1,0.1-0.1c0-0.1-0.1-0.3-0.1-0.4c0.2-0.2,1-0.5,1-0.5L7.4,0.6l0.4-0.1l0.4,0.9
	c2.4-0.2,2.7,0.9,2.9,1.3c1.4-0.2,2.6-0.4,3.5-0.7C13.1,0.7,10.9,0,8.5,0C6.1,0,4,0.7,2.5,1.8c1.1,0.3,2.4,0.6,3.9,0.8L6.5,2.5z"/>
<path d="M11.2,4.6l-0.1,0.4c0,0.3-0.1,0.6-0.2,0.9H17c-0.1-1.3-0.7-2.4-1.7-3.3c-1,0.3-2.4,0.7-4.1,0.9
	C11.3,3.9,11.2,4.6,11.2,4.6z"/>
<path d="M7.9,5c0,0-0.7,0-1.1-0.1c-0.3,0.3-1,1-1.7-0.2c0,0-0.2-0.2-0.1-0.4c0.1-0.2,0.5-0.6,0.8-0.9
	c-1.6-0.2-3-0.6-4-0.9c-1,1-1.7,2.1-1.8,3.4h6.8C7.3,5.3,7.9,5,7.9,5z"/>
<rect x="6.7" y="11.9" width="3.9" height="1.6"/>
</svg>
