<svg width="16" height="16" viewBox="0 0 16 16" xmlns="http://www.w3.org/2000/svg">
<path fill-rule="evenodd" clip-rule="evenodd" d="M14.5455 1.45455H4.36364V2.90909H11.6364C12.4397 2.90909 13.0909 3.56031 13.0909 4.36364V11.6364H14.5455V1.45455ZM13.0909 13.0909L14.5455 13.0909C15.3488 13.0909 16 12.4397 16 11.6364V1.45455C16 0.651222 15.3488 0 14.5455 0H4.36364C3.56031 0 2.90909 0.651222 2.90909 1.45455V2.90909H1.45455C0.651222 2.90909 0 3.56031 0 4.36364V14.5455C0 15.3488 0.651222 16 1.45455 16H11.6364C12.4397 16 13.0909 15.3488 13.0909 14.5455V13.0909ZM1.45455 4.36364H11.6364V14.5455H1.45455L1.45455 4.36364Z"/>
</svg>
