<svg xmlns="http://www.w3.org/2000/svg" xmlns:xlink="http://www.w3.org/1999/xlink" viewBox="0 0 19 12">
  <path d="M16.5 7c-.5 0-1 .2-1.4.4l-3.3-3.9c.1-.3.2-.6.2-1C12 1.1 10.9 0 9.5 0S7 1.1 7 2.5c0 .4.1.7.2 1L3.9 7.4C3.5 7.2 3 7 2.5 7 1.1 7 0 8.1 0 9.5S1.1 12 2.5 12 5 10.9 5 9.5c0-.5-.2-1-.4-1.4l3.2-3.8c.5.4 1.1.7 1.7.7.6 0 1.2-.3 1.7-.7l3.2 3.8c-.2.4-.4.9-.4 1.4 0 1.4 1.1 2.5 2.5 2.5S19 10.9 19 9.5 17.9 7 16.5 7zm-14 4C1.7 11 1 10.3 1 9.5S1.7 8 2.5 8 4 8.7 4 9.5 3.3 11 2.5 11zm7-7C8.7 4 8 3.3 8 2.5S8.7 1 9.5 1s1.5.7 1.5 1.5S10.3 4 9.5 4zm7 7c-.8 0-1.5-.7-1.5-1.5S15.7 8 16.5 8s1.5.7 1.5 1.5-.7 1.5-1.5 1.5z" />
</svg>
