<svg xmlns="http://www.w3.org/2000/svg" viewBox="0 0 27 27" xmlns:xlink="http://www.w3.org/1999/xlink">
  <title>more icon default</title>
  <g id="tPage-1">
    <g id="tArtboard" transform="translate(-25 -145)">
      <g id="tmore-icon-default" transform="translate(26 146)">
        <g id="tGroup-6">
          <path class="tst0" d="M12.5 25.5c-7.2 0-13-5.8-13-13s5.8-13 13-13 13 5.8 13 13-5.8 13-13 13zm0-25C5.9.5.5 5.9.5 12.5s5.4 12 12 12 12-5.4 12-12-5.4-12-12-12z"
                id="tOval-4" />
          <path class="tst0" d="M5.8 12.1c0-.6.5-1 1-1s1 .5 1 1c0 .6-.5 1-1 1s-1-.4-1-1zm5.4 0c0-.6.5-1 1-1 .6 0 1 .5 1 1 0 .6-.5 1-1 1-.5.1-1-.4-1-1zm5.5 0c0-.6.5-1 1-1 .6 0 1 .5 1 1 0 .6-.5 1-1 1-.6.1-1-.4-1-1z"
                id="t_x2E_-.-." />
        </g>
      </g>
    </g>
  </g>
</svg>
