<svg width="11" height="12" viewBox="0 0 11 12" xmlns="http://www.w3.org/2000/svg">
<path fill-rule="evenodd" clip-rule="evenodd" d="M3.28296 8.99986V3.25586H5.05096C6.81896 3.25586 8.11496 4.29586 8.11496 6.12786C8.11496 7.93586 6.79496 8.99986 5.05096 8.99986H3.28296ZM5.29896 8.33586C6.54696 8.33586 7.49096 7.43986 7.49096 6.12786C7.49096 4.89586 6.59496 3.91986 5.29896 3.91986H3.90696V8.33586H5.29896Z"/>
<path fill-rule="evenodd" clip-rule="evenodd" d="M0 2.5C0 1.39543 0.895431 0.5 2 0.5H9C10.1046 0.5 11 1.39543 11 2.5V9.5C11 10.6046 10.1046 11.5 9 11.5H2C0.895431 11.5 0 10.6046 0 9.5V2.5ZM2 1H9C9.82843 1 10.5 1.67157 10.5 2.5V9.5C10.5 10.3284 9.82843 11 9 11H2C1.17157 11 0.5 10.3284 0.5 9.5V2.5C0.5 1.67157 1.17157 1 2 1Z"/>
</svg>
