<svg xmlns="http://www.w3.org/2000/svg" xmlns:xlink="http://www.w3.org/1999/xlink" viewBox="0 0 28 30.5">
  <path d="M14.1 5.2h-.2c-1.1 0-2.1.3-3 .7l5 8.7-1.6.9L9.4 7c-1.5 1.4-2.3 3.4-2.3 5.4C7.2 16 9.3 20 9.3 20h9.3s2.1-4 2.2-7.6c.2-3.5-2.6-7.2-6.7-7.2zm5 25.3c2.4.2 3.2-1.1 4.7-1.1 1.1 0 1.8.7 2 .9l2.2-2.6c-.7-.8-1.8-1.8-4-1.9-2.1-.1-2.9 1.2-4.4.9-1-.2-1-1.4-1-1.4h-3.9c.1 3.1 2.1 5 4.4 5.2zm-5.9-5.1H9.3s0 1.2-1 1.4c-1.5.3-2.2-1.1-4.4-.9-2.1.1-3.2 1.1-4 1.9l2.2 2.6c.3-.2.9-.9 2-.9 1.4 0 2.2 1.3 4.7 1.1 2.4-.3 4.4-2.2 4.4-5.2zm-3.9-1.3h9.4v-2.9H9.3v2.9zM12 4h4V0h-4v4z" />
  <path d="M18.6 20s2.1-4 2.2-7.6c.1-3.5-2.7-7.2-6.8-7.2h-.2c-1.1 0-2.1.3-3 .7l5 8.7-1.6.9L9.4 7c-1.5 1.4-2.3 3.4-2.3 5.4C7.2 16 9.3 20 9.3 20h9.3zm5.4 5.8c-2.1-.1-2.9 1.2-4.4.9-1-.2-1-1.4-1-1.4h-3.9c0 3 2 4.9 4.3 5.1 2.4.2 3.2-1.1 4.7-1.1 1.1 0 1.8.7 2 .9l2.2-2.6c-.7-.7-1.7-1.6-3.9-1.8zM12 0h4v4h-4zM9.3 21.3h9.4v2.9H9.3zm-1 5.5c-1.5.3-2.2-1.1-4.4-.9-2.1.1-3.2 1.1-4 1.9l2.2 2.6c.3-.2.9-.9 2-.9 1.4 0 2.2 1.3 4.7 1.1 2.3-.2 4.3-2.2 4.3-5.1H9.3c0-.1 0 1.1-1 1.3z" />
</svg>
