<svg version="1.1" xmlns="http://www.w3.org/2000/svg" xmlns:xlink="http://www.w3.org/1999/xlink" x="0px" y="0px"
	 viewBox="0 0 16.5 21.5" xml:space="preserve">
<path d="M16,21.6L11,19.1v-2.7l0.3-0.1c0,0,1.3-0.8,2.3-3.6c0.2-0.7,0.8-3.5,0.4-5.4l0-0.1l0-0.1
	c0.1-0.5,0.2-1.1,0.3-1.2c0.2-1.1-0.5-2.1-1.3-2.5c-0.2-0.1-0.9-0.5-1.5-0.1l-0.9,0.7l0.1-1.1c0-0.4-0.1-0.8-0.4-1
	c-1-0.8-3.4-0.9-5.1-0.4C3.4,1.8,2.3,2.7,1.8,4.1C1.4,5.2,1.9,6.5,2.4,6.7l0.3,0.2L2.6,7.3c-0.3,1.8,0.2,4.6,0.4,5.4
	c0.9,2.7,2.2,3.5,2.2,3.5l0.3,0.1l0,2.7l-5.1,2.5L0,20.7l4.5-2.3v-1.6c-0.5-0.4-1.7-1.5-2.5-3.9c-0.2-0.8-0.8-3.5-0.5-5.5
	C0.8,6.7,0.4,5,0.9,3.8c0.6-1.7,1.9-2.9,4-3.4c1.6-0.5,4.5-0.6,6,0.6c0.4,0.3,0.6,0.7,0.7,1.1c0.6-0.1,1.2,0,1.8,0.4
	c1,0.6,2,2,1.8,3.5c0,0.1-0.1,0.5-0.3,1.3c0.3,2-0.2,4.9-0.5,5.7c-0.9,2.5-2,3.6-2.5,3.9v1.6l4.5,2.3L16,21.6z"/>
</svg>