<svg xmlns="http://www.w3.org/2000/svg" viewBox="0 0 23 30" xmlns:xlink="http://www.w3.org/1999/xlink">
  <title>pgn icon default</title>
  <g id="wPage-1">
    <g id="wArtboard" transform="translate(-27 -102)">
      <g id="wpgn-icon-default" transform="translate(27 102)">
        <g id="wGroup-3">
          <path class="wst0" d="M0 4.2h2.3c1.5 0 2.6 1 2.6 2.5 0 1.4-1.1 2.5-2.6 2.5h-.9v3H0v-8zm2.5 1.5h-1v1.8h1c.5 0 .9-.4.9-.9s-.4-.9-.9-.9zM10 4c1.4 0 2.5.6 2.9 1.4l-.5 1.3c-.4-.6-1.3-1.1-2.4-1.1-1.6 0-2.7 1-2.7 2.5 0 1.6 1.1 2.5 2.7 2.5.7 0 1.2-.2 1.6-.6v-.7H9.9V7.8H13v2.8c-.5.9-1.6 1.7-3.2 1.7-2.1 0-4-1.7-4-4.1C6 5.7 7.9 4 10 4zm5.8 8.1V4.2h1.4l3.7 5.4V4.2h1.4v7.9h-1.5l-3.7-5.3v5.3h-1.3z"
                id="wPGN" />
          <path class="wst0" d="M7 17v6H4l7 7 7-7h-3v-6z" id="wPath-2" />
          <path class="wst0" d="M1 .5h20v1H1z" id="wPath-3" />
          <path class="wst0" d="M4.5 21h-4v-7h1v6h3z" id="wPath-6" />
          <path class="wst0" d="M21 21h-4v-1h3v-6h1z" id="wPath-7" />
        </g>
      </g>
    </g>
  </g>
</svg>
