<svg width="33" height="26" viewBox="0 0 33 26" xmlns="http://www.w3.org/2000/svg">
<path d="M33 3.078C31.7728 3.6 30.4652 3.946 29.1019 4.114C30.5044 3.302 31.5748 2.026 32.0781 0.488C30.7704 1.244 29.3267 1.778 27.7881 2.076C26.5464 0.794 24.7768 0 22.8463 0C19.1008 0 16.0854 2.948 16.0854 6.562C16.0854 7.082 16.1308 7.582 16.2422 8.058C10.6178 7.792 5.64094 5.178 2.29762 1.196C1.71394 2.178 1.37156 3.302 1.37156 4.512C1.37156 6.784 2.57812 8.798 4.37663 9.964C3.28969 9.944 2.22337 9.638 1.32 9.156C1.32 9.176 1.32 9.202 1.32 9.228C1.32 12.416 3.66506 15.064 6.74025 15.674C6.18956 15.82 5.58938 15.89 4.9665 15.89C4.53337 15.89 4.09612 15.866 3.68569 15.778C4.56225 18.376 7.04963 20.286 10.0073 20.348C7.7055 22.094 4.78294 23.146 1.61906 23.146C1.06425 23.146 0.532125 23.122 0 23.056C2.99681 24.93 6.54844 26 10.3785 26C22.8277 26 29.634 16 29.634 7.332C29.634 7.042 29.6237 6.762 29.6092 6.484C30.9519 5.56 32.0801 4.406 33 3.078Z" />
</svg>
