<svg version="1.1" id="Layer_1" xmlns="http://www.w3.org/2000/svg" xmlns:xlink="http://www.w3.org/1999/xlink" x="0px" y="0px"
	 viewBox="0 0 30 23.3" style="enable-background:new 0 0 30 23.3;" xml:space="preserve">
<path d="M15,23.3h-4.1v-2H14v-2.9l0-0.1c0-1-0.9-1.9-1.9-2.9c0,0,0,0,0,0.1c-0.3,0.8-0.8,1.4-1.5,1.6
	c-0.8,0.3-1.7,0.2-2.4-0.3c-0.8-0.5-1.4-1.5-1.4-2.4l2-0.1c0,0.2,0.2,0.6,0.5,0.8c0.3,0.2,0.6,0.1,0.6,0.1c0.2-0.1,0.3-0.2,0.3-0.4
	c0.1-0.4,0.1-1.1-0.3-1.6c-0.1-0.1-0.2-0.2-0.3-0.4c-0.6-0.6-1.9-1.4-3.2-2.1C5,9.9,3.5,9.1,2.5,8.2c-2.1-1.8-3-4.1-2.3-6
	C0.8,0.9,2.1,0,3.9,0c1.4,0,2.6,0.8,3.4,1.9l0.1-0.7h15.1l0.1,0.7c0.9-1.1,2-1.9,3.4-1.9c1.8,0,3.1,0.9,3.7,2.3
	c0.7,1.9-0.2,4.2-2.3,6c-1,0.9-2.5,1.7-3.9,2.5c-1.3,0.7-2.6,1.5-3.2,2.1c-0.1,0.1-0.2,0.2-0.3,0.4c-0.4,0.6-0.4,1.2-0.3,1.6
	c0,0.1,0.1,0.3,0.3,0.4c0.1,0,0.3,0.1,0.6-0.1c0.3-0.2,0.5-0.6,0.5-0.8l2,0.1c0,0.9-0.6,1.9-1.4,2.4c-0.7,0.5-1.6,0.6-2.4,0.3
	c-0.7-0.3-1.3-0.8-1.5-1.6c0,0,0,0,0-0.1c-1,1-1.9,1.9-2,2.9c0,1,0,1.1,0,1.1v1.9h3.4v2H15 M11.5,12c0.2,0.3,0.5,0.6,0.8,0.9
	c0.2,0.2,0.4,0.4,0.6,0.6c0.7,0.7,1.4,1.3,2,2.1c0.6-0.8,1.3-1.4,2-2.1c0.2-0.2,0.5-0.5,0.7-0.7c0.3-0.3,0.6-0.6,0.8-0.9
	c0.1-0.2,0.2-0.3,0.3-0.4c0.4-0.6,0.6-1,0.8-1.4c0.4-0.8,0.7-1.7,0.9-2.6c0-0.4,0.1-0.8,0.2-1.1c0.1-0.7,0.1-1.4,0.1-2.1l0-0.4
	c0-0.3,0-0.5,0-0.7H9.2c0,0.2,0,0.4,0,0.7l0,0.4c0,0.7,0,1.4,0.1,2.1c0.1,0.4,0.1,0.8,0.2,1.1c0.2,0.9,0.5,1.8,0.8,2.6
	c0.2,0.4,0.4,0.9,0.8,1.4C11.3,11.7,11.4,11.8,11.5,12z M7.5,7.9C7.5,7.5,7.4,7.1,7.3,6.7C6.8,4.4,5.5,2,3.9,2C3,2,2.3,2.3,2.1,3
	C1.8,3.8,2.2,5.3,3.8,6.7C4.7,7.5,6,8.2,7.4,9c0.2,0.1,0.4,0.2,0.5,0.3C7.8,8.8,7.6,8.4,7.5,7.9 M22.5,7.9c-0.1,0.5-0.2,1-0.4,1.4
	c0.2-0.1,0.4-0.2,0.5-0.3c1.3-0.7,2.7-1.5,3.5-2.3c1.6-1.4,2-2.9,1.7-3.8c-0.2-0.6-0.9-1-1.8-1c-1.6,0-2.9,2.4-3.4,4.7
	C22.6,7.1,22.5,7.5,22.5,7.9"/>
</svg>
